<svg width="22" height="22" viewBox="0 0 22 22" fill="none" xmlns="http://www.w3.org/2000/svg">
<path d="M1.07395 21.9998C0.861465 21.9999 0.653736 21.9369 0.477045 21.8188C0.300354 21.7008 0.162638 21.533 0.0813163 21.3367C-5.2336e-06 21.1404 -0.0212787 20.9244 0.0201869 20.716C0.0616524 20.5076 0.163994 20.3161 0.314267 20.1659L20.1658 0.314354C20.3673 0.112873 20.6406 -0.000318527 20.9255 -0.000318527C21.2105 -0.000318527 21.4837 0.112873 21.6852 0.314354C21.8867 0.515836 21.9999 0.789104 21.9999 1.07404C21.9999 1.35898 21.8867 1.63225 21.6852 1.83373L1.83364 21.6853C1.73397 21.7852 1.61555 21.8644 1.48518 21.9183C1.35481 21.9723 1.21506 22 1.07395 21.9998Z" fill="url(#paint0_linear_8013_50)"/>
<path d="M20.9258 21.9998C20.7847 22 20.6449 21.9723 20.5145 21.9183C20.3842 21.8644 20.2657 21.7852 20.1661 21.6853L0.314513 1.83373C0.113031 1.63225 -0.000160217 1.35898 -0.000160217 1.07404C-0.000160217 0.789104 0.113031 0.515836 0.314513 0.314354C0.515994 0.112873 0.789262 -0.000318527 1.0742 -0.000318527C1.35914 -0.000318527 1.63241 0.112873 1.83389 0.314354L21.6854 20.1659C21.8357 20.3161 21.9381 20.5076 21.9795 20.716C22.021 20.9244 21.9997 21.1404 21.9184 21.3367C21.8371 21.533 21.6994 21.7008 21.5227 21.8188C21.346 21.9369 21.1383 21.9999 20.9258 21.9998Z" fill="url(#paint1_linear_8013_50)"/>
<defs>
<linearGradient id="paint0_linear_8013_50" x1="-0.000465393" y1="10.9998" x2="21.9999" y2="10.9998" gradientUnits="userSpaceOnUse">
<stop stop-color="#FF323F"/>
<stop offset="1" stop-color="#FF37E4"/>
</linearGradient>
<linearGradient id="paint1_linear_8013_50" x1="-0.000160217" y1="10.9998" x2="22.0002" y2="10.9998" gradientUnits="userSpaceOnUse">
<stop stop-color="#FF323F"/>
<stop offset="1" stop-color="#FF37E4"/>
</linearGradient>
</defs>
</svg>
