<svg width="40" height="40" viewBox="0 0 40 40" fill="none" xmlns="http://www.w3.org/2000/svg">
<path d="M0.399902 6.82666H39.6004V33.1742H0.399902V6.82666Z" fill="#D6D4D1"/>
<path d="M0.735352 7.15039H39.2929V32.855H0.735352V7.15039Z" fill="#079D38"/>
<path d="M36.0383 19.9271L20.0628 9.72648C20.034 9.70771 19.9952 9.70771 19.9654 9.72648L3.99093 19.9271C3.96441 19.9438 3.94775 19.9724 3.94775 20.0035C3.94775 20.0345 3.96441 20.0633 3.99093 20.08L19.9654 30.2816C19.9799 30.2905 19.9964 30.2949 20.0142 30.2949C20.0307 30.2949 20.0474 30.2905 20.0629 30.2816L36.0385 20.08C36.064 20.0633 36.0796 20.0345 36.0796 20.0035C36.0796 19.9724 36.0638 19.9437 36.0383 19.9271Z" fill="#FDDF07"/>
<path d="M16.3423 18.167C15.4724 18.167 14.621 18.2433 13.7931 18.3884C13.6592 18.9042 13.5884 19.4455 13.5884 20.0034C13.5884 23.5533 16.4654 26.4293 20.0143 26.4293C22.8945 26.4293 25.3331 24.5342 26.149 21.9219C23.5484 19.5883 20.1116 18.167 16.3423 18.167Z" fill="#072F68"/>
<path d="M16.3425 18.1667C20.1051 18.1667 23.5364 19.5836 26.1348 21.9103C26.2368 21.5828 26.323 21.2473 26.3718 20.8998C23.6609 18.6228 20.1617 17.249 16.3429 17.249C15.5957 17.249 14.8597 17.3032 14.1401 17.4051C14.0007 17.7195 13.8933 18.0493 13.8047 18.387C14.6289 18.243 15.4769 18.1667 16.3425 18.1667Z" fill="white"/>
<path d="M16.3423 17.2493C20.1635 17.2493 23.6638 18.6241 26.376 20.9034C26.4179 20.6089 26.4414 20.3089 26.4414 20.0035C26.4414 16.4547 23.5632 13.5776 20.0145 13.5776C17.3909 13.5776 15.1351 15.1518 14.1377 17.4055C14.8579 17.3035 15.594 17.2493 16.3423 17.2493Z" fill="#072F68"/>
<path d="M16.7077 17.8902L16.7133 17.7506L17.062 17.7629L17.0664 17.64L16.7177 17.6289L16.7211 17.5237L17.1395 17.5381L17.1439 17.4076L16.6037 17.3877L16.5815 18.0175L17.1484 18.0374L17.1528 17.9056L16.7077 17.8902Z" fill="#0C9C35"/>
<path d="M17.6651 17.8479L17.5865 17.4483L17.5842 17.4428L17.4171 17.4272L17.3629 18.046L17.3618 18.0549L17.4846 18.0648L17.5156 17.6995L17.5908 18.0748L17.6995 18.0837L17.8389 17.7273L17.8079 18.0847L17.8067 18.0936L17.9274 18.1047L17.9817 17.4859L17.9829 17.4771L17.8156 17.4627L17.6651 17.8479Z" fill="#0C9C35"/>
<path d="M18.7963 17.9511L19.0808 17.9998L19.1007 17.8792L18.8174 17.8305L18.8306 17.753L19.1683 17.8106L19.1893 17.6911L18.7388 17.6136L18.731 17.6113L18.6358 18.1627L18.6348 18.1714L19.0952 18.2511L19.1041 18.2523L19.1251 18.1316L18.7753 18.0718L18.7963 17.9511Z" fill="#0C9C35"/>
<path d="M24.3964 20.1063C24.4574 20.1661 24.5106 20.2169 24.4851 20.2557C24.465 20.2868 24.4153 20.2813 24.3511 20.2414C24.307 20.2126 24.2772 20.1794 24.2706 20.1484C24.2675 20.1307 24.2706 20.1129 24.2803 20.0974L24.2847 20.0897L24.1539 20.0067L24.1496 20.0133C24.1231 20.0542 24.1153 20.0974 24.1252 20.1417C24.1429 20.2237 24.2168 20.2957 24.2803 20.3366C24.3311 20.3676 24.4067 20.4063 24.4783 20.4063C24.5414 20.4063 24.5913 20.3775 24.6267 20.3211C24.7 20.2071 24.5913 20.1031 24.5051 20.0199C24.4496 19.9669 24.4022 19.9203 24.422 19.8915C24.4354 19.8715 24.4485 19.8616 24.4685 19.8616C24.4928 19.8616 24.5239 19.8783 24.5473 19.8938C24.5858 19.9181 24.6445 19.969 24.6071 20.0277L24.6029 20.0355L24.7293 20.1162L24.7345 20.1084C24.7633 20.0664 24.7724 20.0209 24.7622 19.9756C24.7477 19.908 24.6901 19.8505 24.6417 19.8196L24.6328 19.8139C24.5886 19.7851 24.5065 19.7319 24.4269 19.7319C24.3682 19.7319 24.3207 19.7596 24.2852 19.8139C24.2126 19.9248 24.3146 20.0256 24.3964 20.1063Z" fill="#0C9C35"/>
<path d="M23.4038 19.8116L23.8906 20.0859L23.8986 20.0906L23.9629 19.9766L23.5753 19.7573L23.644 19.6356L23.9406 19.8027L23.9482 19.8071L24.0081 19.7008L23.7048 19.5292L23.7556 19.4374L24.1133 19.64L24.1211 19.6444L24.1853 19.5304L23.7216 19.2669L23.7137 19.2637L23.408 19.8039L23.4038 19.8116Z" fill="#0C9C35"/>
<path d="M25.261 20.7835C25.3396 20.6728 25.2364 20.5643 25.1546 20.4755C25.1027 20.4202 25.0574 20.3717 25.0771 20.3437C25.0917 20.325 25.1058 20.3161 25.1237 20.3161C25.1437 20.3161 25.1679 20.3272 25.2031 20.3528C25.241 20.3793 25.2644 20.4091 25.2699 20.438C25.2721 20.4556 25.2674 20.4734 25.2552 20.489L25.2508 20.4967L25.3657 20.5786L25.3736 20.5842L25.3778 20.5776C25.409 20.5355 25.4213 20.4912 25.4135 20.4456C25.4024 20.3772 25.3481 20.3162 25.3015 20.2831L25.2926 20.2764C25.2484 20.2443 25.1656 20.1846 25.0815 20.1846C25.0269 20.1846 24.9805 20.21 24.9439 20.2599C24.8674 20.3662 24.9641 20.4713 25.041 20.5565C25.0986 20.6196 25.1485 20.6728 25.1219 20.7104C25.113 20.7225 25.0997 20.7293 25.0832 20.7293C25.0589 20.7293 25.0259 20.7147 24.9892 20.6895C24.9549 20.6638 24.9305 20.6385 24.9196 20.613C24.9085 20.5865 24.9108 20.563 24.9263 20.541L24.9305 20.5343L24.8042 20.4445L24.7986 20.4511C24.7709 20.4898 24.7609 20.5331 24.7687 20.5784C24.7822 20.6604 24.853 20.7356 24.9137 20.7799C24.9656 20.8165 25.0431 20.8608 25.1172 20.8608C25.1756 20.8609 25.2243 20.8343 25.261 20.7835Z" fill="#0C9C35"/>
<path d="M14.5337 18.1356C14.5447 18.1356 14.5548 18.1345 14.5659 18.1334C14.721 18.1146 14.8294 17.9585 14.8095 17.7858C14.7886 17.6265 14.6645 17.5068 14.5195 17.5068C14.5095 17.5068 14.4994 17.5068 14.4884 17.5091C14.4131 17.518 14.3455 17.5589 14.3002 17.6254C14.2538 17.6907 14.2349 17.7726 14.2447 17.8555C14.2648 18.015 14.3888 18.1356 14.5337 18.1356ZM14.3798 17.8212C14.3798 17.7748 14.3932 17.7305 14.4163 17.6983C14.4429 17.6618 14.4817 17.6441 14.5271 17.6441C14.629 17.6441 14.6732 17.736 14.6732 17.8212C14.6732 17.8678 14.661 17.9121 14.6366 17.9441C14.6101 17.9807 14.5713 17.9995 14.5271 17.9995C14.4254 17.9995 14.3798 17.9076 14.3798 17.8212Z" fill="#0C9C35"/>
<path d="M26.0158 20.8853C25.996 20.8078 25.9474 20.7458 25.8797 20.7117C25.8431 20.6917 25.8022 20.6816 25.7592 20.6816C25.6473 20.6816 25.5387 20.7526 25.4824 20.86C25.4446 20.934 25.4336 21.0183 25.4538 21.0958C25.4745 21.1733 25.5235 21.2352 25.5912 21.2706C25.6278 21.2894 25.6687 21.2994 25.711 21.2994C25.8229 21.2994 25.9322 21.2297 25.9878 21.1211C26.026 21.047 26.0357 20.9627 26.0158 20.8853ZM25.8876 21.0116C25.861 21.0978 25.7847 21.162 25.7103 21.162C25.6838 21.162 25.6585 21.1542 25.6351 21.1376C25.5797 21.0999 25.5613 21.0391 25.5831 20.9694C25.6096 20.8841 25.6854 20.8189 25.7592 20.8189C25.7857 20.8189 25.8112 20.8278 25.8355 20.8445C25.8897 20.8808 25.9086 20.943 25.8876 21.0116Z" fill="#0C9C35"/>
<path d="M16.3723 17.7227C16.3723 17.717 16.3723 17.7115 16.3723 17.706C16.3735 17.6606 16.3735 17.5987 16.3248 17.5189C16.2551 17.4072 16.12 17.4015 16.1134 17.4004L15.7979 17.406L15.809 18.0271L15.8101 18.0348H15.819C15.8434 18.0348 16.0636 18.0348 16.1257 18.0293C16.2009 18.0216 16.2751 17.9795 16.3217 17.9176C16.3735 17.85 16.3723 17.7702 16.3723 17.7227ZM16.1034 17.5335C16.1865 17.5346 16.223 17.5944 16.2428 17.6397C16.2496 17.6839 16.2496 17.7039 16.2507 17.7405L16.2518 17.7471C16.245 17.7969 16.2297 17.8301 16.1975 17.86C16.1355 17.9009 16.1056 17.9009 16.0668 17.9009C16.028 17.9009 15.9617 17.902 15.9385 17.902C15.9373 17.8534 15.9329 17.6132 15.9318 17.5346C16.0503 17.5335 16.0548 17.5335 16.1034 17.5335Z" fill="#0C9C35"/>
<path d="M15.492 17.784C15.5098 17.7685 15.5551 17.7198 15.5696 17.6535C15.5872 17.5726 15.5364 17.5052 15.5142 17.4874L15.5109 17.4829C15.4888 17.463 15.4478 17.4253 15.388 17.4253H15.3825C15.3194 17.4285 15.0105 17.4496 15.0073 17.4496L14.9995 17.4507L15.0338 18.0795L15.1645 18.0695L15.149 17.8437L15.3792 17.827C15.3903 17.8469 15.4368 17.9289 15.4423 17.9809C15.4456 18.0151 15.4456 18.0462 15.4456 18.0462V18.0551H15.5729V18.0462C15.5729 18.0417 15.5761 17.9344 15.5441 17.868C15.5208 17.8215 15.502 17.795 15.492 17.784ZM15.2817 17.5626C15.2939 17.5615 15.3018 17.5615 15.3028 17.5615C15.3327 17.5603 15.367 17.5571 15.367 17.5571C15.3681 17.5571 15.389 17.5582 15.4123 17.5781C15.4123 17.5781 15.4332 17.5936 15.4322 17.6224C15.431 17.6522 15.4145 17.6777 15.4068 17.6821C15.389 17.6965 15.3382 17.6998 15.3204 17.7009L15.1401 17.713L15.1302 17.5736C15.1621 17.5726 15.2419 17.5658 15.2817 17.5626Z" fill="#0C9C35"/>
<path d="M21.5871 18.9692C21.6048 18.9724 21.6225 18.9748 21.6403 18.9748C21.7764 18.9748 21.8982 18.8674 21.9291 18.719C21.9647 18.5497 21.8694 18.3847 21.7166 18.3527C21.699 18.3494 21.6812 18.3481 21.6636 18.3481C21.5262 18.3481 21.4045 18.4544 21.3733 18.6029C21.3569 18.6847 21.369 18.7688 21.4088 18.8375C21.4496 18.9072 21.5128 18.9537 21.5871 18.9692ZM21.5028 18.6515C21.5162 18.5708 21.5761 18.4856 21.6636 18.4856C21.6779 18.4856 21.6935 18.4878 21.7087 18.4933C21.793 18.5221 21.8116 18.6041 21.8007 18.6716C21.787 18.7512 21.7252 18.8375 21.6398 18.8375C21.6246 18.8375 21.6099 18.8353 21.5934 18.8298C21.5096 18.801 21.4907 18.719 21.5028 18.6515Z" fill="#0C9C35"/>
<path d="M21.0302 18.5021C21.0524 18.4921 21.1109 18.4611 21.1452 18.4037C21.1894 18.3317 21.163 18.252 21.1498 18.2275L21.1464 18.2232C21.1318 18.1978 21.1043 18.1457 21.0435 18.1268C20.9837 18.1091 20.6849 18.0283 20.6818 18.0272L20.6729 18.0249L20.5037 18.6217L20.5005 18.6306L20.6278 18.6649L20.6865 18.4446L20.91 18.5055C20.9144 18.5277 20.9309 18.6196 20.9189 18.6705C20.91 18.7048 20.9012 18.7336 20.9012 18.7336L20.8969 18.7425L21.0174 18.7845L21.0216 18.7756C21.0229 18.7712 21.0604 18.6716 21.0515 18.5985C21.0445 18.5453 21.0357 18.5154 21.0302 18.5021ZM20.7567 18.1834C20.7901 18.1933 20.8753 18.2155 20.9094 18.2254C20.9183 18.2266 20.923 18.2288 20.9241 18.2288C20.9529 18.2377 20.9861 18.2453 20.9861 18.2453C20.9861 18.2453 21.0069 18.2542 21.0213 18.2796C21.0213 18.2796 21.0367 18.3018 21.0257 18.3294C21.016 18.3571 20.9916 18.3749 20.9815 18.377C20.9772 18.3781 20.9718 18.3792 20.9639 18.3792C20.934 18.3792 20.8963 18.366 20.8955 18.366L20.7219 18.3184C20.727 18.2951 20.7459 18.2254 20.7567 18.1834Z" fill="#0C9C35"/>
<path d="M23.1392 19.5704C23.1258 19.6035 23.1115 19.6301 23.1115 19.6301L23.1071 19.6378L23.2202 19.6975L23.2245 19.6909C23.2271 19.6865 23.2789 19.5924 23.2809 19.5193C23.284 19.4672 23.2785 19.4352 23.2753 19.4208C23.2986 19.4142 23.3617 19.3931 23.4049 19.3422C23.457 19.278 23.4436 19.195 23.4348 19.1685L23.4325 19.163C23.4215 19.1342 23.4025 19.08 23.3462 19.0522C23.2888 19.0257 23.0053 18.9005 23.0029 18.8994L22.9951 18.895L22.736 19.4595L22.7329 19.4672L22.8526 19.5203L22.9443 19.3121L23.1558 19.4063C23.1558 19.4286 23.1592 19.5227 23.1392 19.5704ZM23.189 19.1253C23.2023 19.131 23.211 19.1342 23.2121 19.1353C23.2387 19.1475 23.2708 19.1607 23.2708 19.1607C23.2708 19.1619 23.2899 19.1729 23.3009 19.2007C23.3009 19.2007 23.3119 19.2249 23.2978 19.2505C23.2841 19.2759 23.258 19.2891 23.2478 19.2903C23.2447 19.2903 23.2423 19.2914 23.2399 19.2914C23.21 19.2914 23.1636 19.2671 23.1625 19.2671L22.9964 19.1929L23.0539 19.0656C23.0815 19.0789 23.1503 19.1088 23.189 19.1253Z" fill="#0C9C35"/>
<path d="M20.3874 17.9951C20.3719 17.9685 20.3432 17.9186 20.2834 17.9021C20.2216 17.8854 19.9203 17.8113 19.918 17.8102L19.9092 17.8091L19.752 18.4178L19.8792 18.4487L19.9336 18.2285L20.1626 18.2838C20.164 18.2838 20.186 18.2893 20.2135 18.2893C20.2344 18.2893 20.2545 18.286 20.27 18.2804C20.2732 18.2793 20.3507 18.2461 20.3905 18.1753C20.4327 18.1033 20.4038 18.0236 20.3894 17.9993L20.3874 17.9951ZM19.9965 17.9652C20.0297 17.974 20.1107 17.9939 20.1482 18.0028C20.1581 18.0051 20.1636 18.0061 20.1647 18.0061C20.1946 18.0138 20.2267 18.0216 20.2267 18.0216C20.2278 18.0227 20.2474 18.0294 20.2643 18.0559C20.2667 18.0593 20.2789 18.0803 20.27 18.1046C20.2611 18.1322 20.2367 18.1511 20.2267 18.1533C20.2212 18.1555 20.2145 18.1555 20.2058 18.1555C20.177 18.1555 20.1404 18.1444 20.1393 18.1444L19.9643 18.1012C19.969 18.0769 19.9866 18.0072 19.9965 17.9652Z" fill="#0C9C35"/>
<path d="M22.4251 19.2481L22.3985 19.3068L22.3956 19.3146L22.492 19.3566L22.5794 19.1551L22.6048 19.1663L22.647 19.0699L22.6262 19.061L22.6274 19.0588L22.6185 19.0544C22.6075 19.05 22.5954 19.0445 22.5844 19.04L22.5579 19.0279C22.5445 19.0212 22.5302 19.0167 22.5157 19.0123L22.4186 18.9703L22.3775 19.0667L22.433 19.0909C22.4043 19.1131 22.3712 19.1263 22.339 19.1263C22.3115 19.1263 22.2858 19.1175 22.2627 19.1009C22.2083 19.0644 22.1893 19.0036 22.2107 18.9337C22.2372 18.8474 22.3136 18.7832 22.3867 18.7832C22.4132 18.7832 22.4399 18.7909 22.463 18.8076C22.4996 18.833 22.5195 18.8684 22.5229 18.9104L22.524 18.9159L22.5284 18.9182C22.5405 18.9237 22.5541 18.9282 22.5662 18.9315C22.5807 18.9358 22.5948 18.9404 22.6081 18.9459L22.6524 18.9669V18.9548C22.6623 18.8352 22.6047 18.7256 22.5075 18.6748C22.4708 18.656 22.4311 18.646 22.3878 18.646C22.2761 18.646 22.1666 18.7157 22.1111 18.8242C22.0315 18.978 22.0799 19.1619 22.2185 19.2337C22.2562 19.2536 22.2961 19.2625 22.338 19.2625C22.3674 19.2625 22.396 19.258 22.4251 19.2481Z" fill="#0C9C35"/>
<path d="M21.8763 17.8404L22.028 17.7297L22.1819 17.8404L22.1232 17.6611L22.275 17.5503H22.0867L22.028 17.3711L21.9705 17.5503H21.7822L21.9341 17.6611L21.8763 17.8404Z" fill="white"/>
<path d="M14.9346 18.7557H14.7144L14.6468 18.5454L14.5782 18.7557H14.3579L14.5361 18.8852L14.4674 19.0945L14.6468 18.9649L14.8239 19.0945L14.7563 18.8852L14.9346 18.7557Z" fill="white"/>
<path d="M21.8231 19.8597L21.7745 19.708L21.7257 19.8597H21.5664L21.6948 19.9527L21.6461 20.1043L21.7745 20.0114L21.9028 20.1043L21.8541 19.9527L21.9826 19.8597H21.8231Z" fill="white"/>
<path d="M15.9926 20.8768L15.9615 20.7783L15.9284 20.8768H15.8232L15.9085 20.9378L15.8764 21.0384L15.9615 20.9776L16.0458 21.0384L16.0136 20.9388L16.0988 20.8768H15.9926Z" fill="white"/>
<path d="M15.2832 21.4565L15.2223 21.2729L15.2135 21.2751L15.2046 21.2729L15.1459 21.4565H14.9258L15.1039 21.5872L15.0364 21.7965L15.2145 21.6671L15.3927 21.7965L15.3241 21.5872L15.5024 21.4565H15.2832Z" fill="white"/>
<path d="M14.6079 22.0481L14.5492 21.8711L14.4917 22.0481H14.3057L14.4562 22.1588L14.3987 22.3371L14.5492 22.2263L14.7009 22.3371L14.6433 22.1588L14.795 22.0481H14.6079Z" fill="white"/>
<path d="M17.5048 20.4273L17.4472 20.2524L17.3917 20.4273H17.207L17.3563 20.5347L17.2989 20.7096L17.4472 20.6024L17.5954 20.7096L17.5391 20.5347L17.6885 20.4273H17.5048Z" fill="white"/>
<path d="M16.7421 22.2239L16.689 22.061L16.6368 22.2239H16.4653L16.6036 22.3246L16.5506 22.4873L16.689 22.3864L16.8273 22.4873L16.7752 22.3246L16.9135 22.2239H16.7421Z" fill="white"/>
<path d="M16.542 23.0189L16.4922 22.8672L16.4445 23.0189H16.2852L16.4137 23.1119L16.3638 23.2636L16.4922 23.1695L16.6217 23.2636L16.5719 23.1119L16.7003 23.0189H16.542Z" fill="white"/>
<path d="M17.5082 23.5302L17.4407 23.3208L17.3731 23.5302H17.1528L17.3301 23.6598L17.2625 23.87L17.4407 23.7405L17.6188 23.87L17.5513 23.6598L17.7296 23.5302H17.5082Z" fill="white"/>
<path d="M20.0144 20.5547L19.9557 20.7339H19.7676L19.9203 20.8447L19.8627 21.0242L20.0144 20.9134L20.1671 21.0242L20.1086 20.8447L20.2613 20.7339H20.072L20.0144 20.5547Z" fill="white"/>
<path d="M19.5725 21.3128H19.4142L19.3645 21.1611L19.3157 21.3128H19.1562L19.2858 21.4058L19.236 21.5572L19.3645 21.4633L19.4939 21.5563L19.4441 21.4058L19.5725 21.3128Z" fill="white"/>
<path d="M19.6866 21.9771L19.7707 22.039L19.7387 21.9394L19.8228 21.8774H19.7187L19.6866 21.7788L19.6544 21.8774H19.5493L19.6347 21.9394L19.6014 22.039L19.6866 21.9771Z" fill="white"/>
<path d="M20.8143 21.4183L20.7567 21.2388L20.6993 21.4183H20.5098L20.6627 21.5289L20.604 21.7083L20.7567 21.5975L20.9094 21.7083L20.851 21.5289L21.0037 21.4183H20.8143Z" fill="white"/>
<path d="M19.8924 22.6147L19.8248 22.824H19.6035L19.7817 22.9536L19.713 23.164L19.8924 23.0331L20.0706 23.164L20.002 22.9536L20.1802 22.824H19.9598L19.8924 22.6147Z" fill="white"/>
<path d="M20.0361 25.2389L20.0097 25.1582L19.9842 25.2389H19.8989L19.9675 25.2887L19.9421 25.3696L20.0097 25.3196L20.0793 25.3696L20.0527 25.2887L20.1203 25.2389H20.0361Z" fill="white"/>
<path d="M21.3558 23.5433L21.306 23.3916L21.2584 23.5433H21.0991L21.2275 23.6362L21.1776 23.788L21.306 23.6937L21.4345 23.788L21.3856 23.6362L21.514 23.5433H21.3558Z" fill="white"/>
<path d="M21.8721 24.2486L21.8134 24.0693L21.7547 24.2486H21.5664L21.718 24.3593L21.6593 24.5385L21.8134 24.4279L21.9649 24.5385L21.9073 24.3593L22.0589 24.2486H21.8721Z" fill="white"/>
<path d="M22.5402 23.5667L22.4917 23.415L22.443 23.5667H22.2837L22.412 23.6599L22.3633 23.8114L22.4917 23.7186L22.6201 23.8114L22.5714 23.6599L22.6997 23.5667H22.5402Z" fill="white"/>
<path d="M23.2554 23.5975L23.2056 23.4473L23.1559 23.5975H22.9976L23.1258 23.6917L23.0771 23.8434L23.2056 23.7494L23.334 23.8434L23.2854 23.6917L23.4136 23.5975H23.2554Z" fill="white"/>
<path d="M23.222 24.0269L23.1645 24.2064H22.9751L23.1279 24.3168L23.0692 24.4962L23.222 24.3854L23.3749 24.4962L23.3162 24.3168L23.469 24.2064H23.2796L23.222 24.0269Z" fill="white"/>
<path d="M23.2866 24.8774L23.2378 24.7256L23.1891 24.8774H23.0298L23.1581 24.9703L23.1094 25.1218L23.2378 25.0279L23.3662 25.1218L23.3164 24.9703L23.4458 24.8774H23.2866Z" fill="white"/>
<path d="M23.9264 23.7129L23.8776 23.562L23.8289 23.7129H23.6694L23.798 23.8068L23.749 23.9573L23.8776 23.8644L24.006 23.9573L23.9572 23.8068L24.0857 23.7129H23.9264Z" fill="white"/>
<path d="M24.4499 23.3804L24.3912 23.2012L24.3336 23.3804L24.1753 23.3793V23.3838L24.1665 23.3959L24.2982 23.491L24.2395 23.6705L24.3912 23.5597L24.544 23.6705L24.4853 23.491L24.6391 23.3804H24.4499Z" fill="white"/>
<path d="M24.7147 22.7564L24.656 22.5771L24.5973 22.7564H24.4092L24.5619 22.8671L24.5032 23.0465L24.656 22.9359L24.8075 23.0465L24.7501 22.8671L24.9015 22.7564H24.7147Z" fill="white"/>
<path d="M24.2716 22.3713L24.4489 22.5009L24.3813 22.2905L24.5595 22.1611H24.3394L24.2716 21.9517L24.2032 22.1611H23.9829L24.1609 22.2905L24.0924 22.5009L24.2716 22.3713Z" fill="white"/>
<path d="M25.3433 22.2581L25.2935 22.1064L25.2448 22.2581H25.0854L25.2137 22.351L25.165 22.5017L25.2935 22.4086L25.4219 22.5017L25.3732 22.351L25.5015 22.2581H25.3433Z" fill="white"/>
</svg>
