<svg width="40" height="40" viewBox="0 0 40 40" fill="none" xmlns="http://www.w3.org/2000/svg">
<path d="M40 6.6665H0V33.3335H40V6.6665Z" fill="#F0F0F0"/>
<path d="M22.5 6.6665H17.5V17.4998H0V22.4998H17.5V33.3331H22.5V22.4998H40V17.4998H22.5V6.6665Z" fill="#D80027"/>
<path d="M30.7642 24.6372L39.9997 29.7681V24.6372H30.7642Z" fill="#0052B4"/>
<path d="M24.3477 24.6372L39.9998 33.3328V30.8739L28.7738 24.6372H24.3477Z" fill="#0052B4"/>
<path d="M35.8306 33.3326L24.3477 26.9526V33.3326H35.8306Z" fill="#0052B4"/>
<path d="M24.3477 24.6372L39.9998 33.3328V30.8739L28.7738 24.6372H24.3477Z" fill="#F0F0F0"/>
<path d="M24.3477 24.6372L39.9998 33.3328V30.8739L28.7738 24.6372H24.3477Z" fill="#D80027"/>
<path d="M7.05789 24.6372L0 28.5583V24.6372H7.05789Z" fill="#0052B4"/>
<path d="M15.6524 25.7432V33.3331H1.9917L15.6524 25.7432Z" fill="#0052B4"/>
<path d="M11.226 24.6372L0 30.8739V33.3328L15.6522 24.6372H11.226Z" fill="#D80027"/>
<path d="M9.23555 15.3619L0 10.231V15.3619H9.23555Z" fill="#0052B4"/>
<path d="M15.6522 15.3621L0 6.6665V9.12541L11.226 15.3621H15.6522Z" fill="#0052B4"/>
<path d="M4.16943 6.6665L15.6524 13.0465V6.6665H4.16943Z" fill="#0052B4"/>
<path d="M15.6522 15.3621L0 6.6665V9.12541L11.226 15.3621H15.6522Z" fill="#F0F0F0"/>
<path d="M15.6522 15.3621L0 6.6665V9.12541L11.226 15.3621H15.6522Z" fill="#D80027"/>
<path d="M32.9419 15.362L39.9998 11.4409V15.362H32.9419Z" fill="#0052B4"/>
<path d="M24.3477 14.2564V6.6665H38.0084L24.3477 14.2564Z" fill="#0052B4"/>
<path d="M28.7738 15.3621L39.9998 9.12541V6.6665L24.3477 15.3621H28.7738Z" fill="#D80027"/>
</svg>
