<svg width="100" height="100" viewBox="0 0 100 100" fill="none" xmlns="http://www.w3.org/2000/svg">
<path d="M85 15.0002V51.6668H15V15.0002L16.6667 13.3335H83.3333L85 15.0002Z" fill="#2A2A49"/>
<path d="M85 6.6665V14.9998H15V6.6665C15 5.34042 15.5268 4.06865 16.4645 3.13097C17.4021 2.19329 18.6739 1.6665 20 1.6665H80C81.3261 1.6665 82.5979 2.19329 83.5355 3.13097C84.4732 4.06865 85 5.34042 85 6.6665Z" fill="#444477"/>
<path d="M56.6667 50H43.3333L10 63.3333V93.3333C10 94.6594 10.5268 95.9312 11.4645 96.8689C12.4021 97.8065 13.6739 98.3333 15 98.3333H85C86.3261 98.3333 87.5979 97.8065 88.5355 96.8689C89.4732 95.9312 90 94.6594 90 93.3333V63.3333L56.6667 50Z" fill="#B25936"/>
<path d="M90 63.3333V93.3333C90 94.6594 89.4732 95.9312 88.5355 96.8689C87.5979 97.8065 86.3261 98.3333 85 98.3333H50V50H56.6667L90 63.3333Z" fill="#8C482A"/>
<path d="M36.4999 63.3333H3.3849C3.05536 63.3337 2.7327 63.2391 2.45558 63.0608C2.17846 62.8824 1.95866 62.628 1.82251 62.3279C1.68635 62.0278 1.63963 61.6948 1.68795 61.3688C1.73626 61.0428 1.87756 60.7377 2.0949 60.49L10.7616 50.585C10.9223 50.4015 11.1204 50.2543 11.3426 50.1534C11.5648 50.0526 11.8059 50.0002 12.0499 50H49.9999L39.5449 61.95C39.1648 62.3838 38.6967 62.7315 38.1716 62.9701C37.6465 63.2086 37.0766 63.3325 36.4999 63.3333Z" fill="#CE7645"/>
<path d="M63.5 63.3333H96.615C96.9445 63.3337 97.2672 63.2391 97.5443 63.0608C97.8214 62.8824 98.0412 62.628 98.1774 62.3279C98.3135 62.0278 98.3603 61.6948 98.312 61.3688C98.2636 61.0428 98.1223 60.7377 97.905 60.49L89.2383 50.585C89.0776 50.4015 88.8795 50.2543 88.6573 50.1534C88.4351 50.0526 88.194 50.0002 87.95 50H50L60.455 61.95C60.8351 62.3838 61.3032 62.7315 61.8283 62.9701C62.3534 63.2086 62.9233 63.3325 63.5 63.3333Z" fill="#CE7645"/>
<path d="M23.3333 9.99984H21.6667C21.2246 9.99984 20.8007 9.82424 20.4882 9.51168C20.1756 9.19912 20 8.7752 20 8.33317C20 7.89114 20.1756 7.46722 20.4882 7.15466C20.8007 6.8421 21.2246 6.6665 21.6667 6.6665H23.3333C23.7754 6.6665 24.1993 6.8421 24.5118 7.15466C24.8244 7.46722 25 7.89114 25 8.33317C25 8.7752 24.8244 9.19912 24.5118 9.51168C24.1993 9.82424 23.7754 9.99984 23.3333 9.99984Z" fill="#FF4D4D"/>
<path d="M31.6668 9.99984H30.0002C29.5581 9.99984 29.1342 9.82424 28.8217 9.51168C28.5091 9.19912 28.3335 8.7752 28.3335 8.33317C28.3335 7.89114 28.5091 7.46722 28.8217 7.15466C29.1342 6.8421 29.5581 6.6665 30.0002 6.6665H31.6668C32.1089 6.6665 32.5328 6.8421 32.8453 7.15466C33.1579 7.46722 33.3335 7.89114 33.3335 8.33317C33.3335 8.7752 33.1579 9.19912 32.8453 9.51168C32.5328 9.82424 32.1089 9.99984 31.6668 9.99984Z" fill="#F7BB26"/>
<path d="M39.9998 9.99984H38.3332C37.8911 9.99984 37.4672 9.82424 37.1547 9.51168C36.8421 9.19912 36.6665 8.7752 36.6665 8.33317C36.6665 7.89114 36.8421 7.46722 37.1547 7.15466C37.4672 6.8421 37.8911 6.6665 38.3332 6.6665H39.9998C40.4419 6.6665 40.8658 6.8421 41.1784 7.15466C41.4909 7.46722 41.6665 7.89114 41.6665 8.33317C41.6665 8.7752 41.4909 9.19912 41.1784 9.51168C40.8658 9.82424 40.4419 9.99984 39.9998 9.99984Z" fill="#25E572"/>
<path d="M71.6667 9.99984H51.6667C51.2246 9.99984 50.8007 9.82424 50.4882 9.51168C50.1756 9.19912 50 8.7752 50 8.33317C50 7.89114 50.1756 7.46722 50.4882 7.15466C50.8007 6.8421 51.2246 6.6665 51.6667 6.6665H71.6667C72.1087 6.6665 72.5326 6.8421 72.8452 7.15466C73.1577 7.46722 73.3333 7.89114 73.3333 8.33317C73.3333 8.7752 73.1577 9.19912 72.8452 9.51168C72.5326 9.82424 72.1087 9.99984 71.6667 9.99984Z" fill="#2A2A49"/>
<path d="M39.9998 40.0003C39.6391 40.0011 39.288 39.884 38.9998 39.667L32.3332 34.667C32.1262 34.5117 31.9582 34.3104 31.8425 34.079C31.7267 33.8476 31.6665 33.5924 31.6665 33.3337C31.6665 33.0749 31.7267 32.8197 31.8425 32.5883C31.9582 32.3569 32.1262 32.1556 32.3332 32.0003L38.9998 27.0003C39.1749 26.869 39.3742 26.7735 39.5862 26.7191C39.7982 26.6648 40.0189 26.6528 40.2355 26.6837C40.4522 26.7147 40.6607 26.788 40.849 26.8995C41.0373 27.011 41.2018 27.1586 41.3332 27.3337C41.4645 27.5088 41.56 27.708 41.6144 27.92C41.6687 28.132 41.6807 28.3527 41.6498 28.5694C41.6188 28.786 41.5455 28.9945 41.434 29.1828C41.3224 29.3711 41.1749 29.5357 40.9998 29.667L36.1115 33.3337L40.9998 37.0003C41.2797 37.2102 41.4864 37.5028 41.5907 37.8367C41.695 38.1706 41.6916 38.5289 41.581 38.8607C41.4704 39.1926 41.2581 39.4812 40.9744 39.6857C40.6906 39.8903 40.3496 40.0003 39.9998 40.0003Z" fill="#25E572"/>
<path d="M59.9997 40.0003C59.6499 40.0003 59.3089 39.8903 59.0252 39.6857C58.7414 39.4812 58.5292 39.1926 58.4185 38.8607C58.3079 38.5289 58.3045 38.1706 58.4088 37.8367C58.5131 37.5028 58.7198 37.2102 58.9997 37.0003L63.888 33.3337L58.9997 29.667C58.6461 29.4018 58.4123 29.007 58.3498 28.5694C58.2873 28.1318 58.4011 27.6873 58.6663 27.3337C58.9316 26.98 59.3264 26.7463 59.764 26.6837C60.2016 26.6212 60.6461 26.7351 60.9997 27.0003L67.6663 32.0003C67.8733 32.1556 68.0413 32.3569 68.1571 32.5883C68.2728 32.8197 68.333 33.0749 68.333 33.3337C68.333 33.5924 68.2728 33.8476 68.1571 34.079C68.0413 34.3104 67.8733 34.5118 67.6663 34.667L60.9997 39.667C60.7115 39.884 60.3604 40.0011 59.9997 40.0003Z" fill="#25E572"/>
<path d="M48.3333 41.6668C48.1968 41.6665 48.0608 41.6497 47.9283 41.6168C47.4996 41.5098 47.131 41.2368 46.9035 40.858C46.6759 40.4792 46.6081 40.0256 46.715 39.5968L50.0483 26.2635C50.1635 25.8437 50.4383 25.4855 50.8141 25.2657C51.1898 25.0459 51.6367 24.9818 52.0591 25.0872C52.4815 25.1926 52.8459 25.459 53.0744 25.8296C53.3028 26.2002 53.3772 26.6454 53.2817 27.0702L49.9483 40.4035C49.8584 40.7639 49.6507 41.084 49.3581 41.3129C49.0655 41.5418 48.7048 41.6664 48.3333 41.6668Z" fill="#25E572"/>
</svg>
