<svg width="11" height="11" viewBox="0 0 11 11" fill="none" xmlns="http://www.w3.org/2000/svg">
<path d="M9.58328 6.04156H6.04156V9.58328C6.04156 10.0433 5.66833 10.4166 5.20828 10.4166C4.74823 10.4166 4.375 10.0433 4.375 9.58328V6.04156H0.833282C0.37323 6.04156 0 5.66833 0 5.20828C0 4.74823 0.37323 4.375 0.833282 4.375H4.375V0.833282C4.375 0.37323 4.74823 0 5.20828 0C5.66833 0 6.04156 0.37323 6.04156 0.833282V4.375H9.58328C10.0433 4.375 10.4166 4.74823 10.4166 5.20828C10.4166 5.66833 10.0433 6.04156 9.58328 6.04156Z" fill="#FAFAFA"/>
</svg>
