<svg width="26" height="15" viewBox="0 0 26 15" fill="none" xmlns="http://www.w3.org/2000/svg">
<path d="M24.4738 1.0075C24.6488 0.42625 24.4737 0 23.6462 0H20.905C20.2075 0 19.8888 0.368751 19.7137 0.773751C19.7137 0.773751 18.32 4.1725 16.345 6.37625C15.7075 7.0175 15.4163 7.22 15.0688 7.22C14.895 7.22 14.6425 7.0175 14.6425 6.43625V1.0075C14.6425 0.31 14.4413 0 13.86 0H9.5525C9.1175 0 8.855 0.3225 8.855 0.63C8.855 1.29 9.8425 1.4425 9.94375 3.3025V7.3375C9.94375 8.22125 9.785 8.3825 9.435 8.3825C8.50625 8.3825 6.24625 4.97125 4.905 1.06625C4.64375 0.3075 4.38 0.00125051 3.68 0.00125051H0.94C0.15625 0.00125051 0 0.37 0 0.775C0 1.5025 0.92875 5.1025 4.32625 9.86375C6.59125 13.115 9.78 14.8775 12.685 14.8775C14.4262 14.8775 14.6413 14.4862 14.6413 13.8112V11.3538C14.6413 10.5712 14.8075 10.4138 15.3587 10.4138C15.7638 10.4138 16.4612 10.6188 18.0875 12.185C19.945 14.0425 20.2525 14.8763 21.2963 14.8763H24.0363C24.8188 14.8763 25.21 14.485 24.985 13.7125C24.7388 12.9437 23.8512 11.825 22.6737 10.5013C22.0338 9.74625 21.0775 8.93375 20.7862 8.5275C20.38 8.00375 20.4975 7.7725 20.7862 7.3075C20.7875 7.30875 24.1263 2.60625 24.4738 1.0075Z" fill="#4E4E4E"/>
</svg>
