<svg width="29" height="21" viewBox="0 0 29 21" fill="none" xmlns="http://www.w3.org/2000/svg">
<path d="M27.8501 3.28579C27.523 1.99243 26.5591 0.97382 25.3353 0.628141C23.1171 0 14.2222 0 14.2222 0C14.2222 0 5.32745 0 3.10917 0.628141C1.88536 0.973875 0.92151 1.99243 0.594375 3.28579C0 5.63008 0 10.5212 0 10.5212C0 10.5212 0 15.4124 0.594375 17.7566C0.92151 19.05 1.88536 20.0262 3.10917 20.3719C5.32745 21 14.2222 21 14.2222 21C14.2222 21 23.117 21 25.3353 20.3719C26.5591 20.0262 27.523 19.05 27.8501 17.7566C28.4445 15.4124 28.4445 10.5212 28.4445 10.5212C28.4445 10.5212 28.4445 5.63008 27.8501 3.28579ZM11.3131 14.962V6.08043L18.7474 10.5213L11.3131 14.962Z" fill="#4E4E4E"/>
</svg>
