<svg width="34" height="22" viewBox="0 0 34 22" fill="none" xmlns="http://www.w3.org/2000/svg">
<path d="M0 20.5C0 19.6716 0.671573 19 1.5 19H32.5C33.3284 19 34 19.6716 34 20.5C34 21.3284 33.3284 22 32.5 22H1.5C0.671572 22 0 21.3284 0 20.5Z" fill="url(#paint0_linear_8011_4098)"/>
<path d="M0 11.5C0 10.6716 0.671573 10 1.5 10H32.5C33.3284 10 34 10.6716 34 11.5C34 12.3284 33.3284 13 32.5 13H1.5C0.671572 13 0 12.3284 0 11.5Z" fill="url(#paint1_linear_8011_4098)"/>
<path d="M0 1.5C0 0.671573 0.671573 0 1.5 0H32.5C33.3284 0 34 0.671573 34 1.5C34 2.32843 33.3284 3 32.5 3H1.5C0.671572 3 0 2.32843 0 1.5Z" fill="url(#paint2_linear_8011_4098)"/>
<defs>
<linearGradient id="paint0_linear_8011_4098" x1="0" y1="20.5" x2="34" y2="20.5" gradientUnits="userSpaceOnUse">
<stop stop-color="#FF323F"/>
<stop offset="1" stop-color="#FF37E4"/>
</linearGradient>
<linearGradient id="paint1_linear_8011_4098" x1="0" y1="11.5" x2="34" y2="11.5" gradientUnits="userSpaceOnUse">
<stop stop-color="#FF323F"/>
<stop offset="1" stop-color="#FF37E4"/>
</linearGradient>
<linearGradient id="paint2_linear_8011_4098" x1="0" y1="1.5" x2="34" y2="1.5" gradientUnits="userSpaceOnUse">
<stop stop-color="#FF323F"/>
<stop offset="1" stop-color="#FF37E4"/>
</linearGradient>
</defs>
</svg>
