<svg width="10" height="10" viewBox="0 0 10 10" fill="none" xmlns="http://www.w3.org/2000/svg">
<g clip-path="url(#clip0_144_218)">
<path d="M5 5C5 7.76131 7.23807 10 9.99938 10C9.99938 7.23869 7.76131 5 5 5Z" fill="url(#paint0_linear_144_218)"/>
<path d="M9.99938 0C7.23807 0 5 2.23807 5 5C7.76131 5 9.99938 2.76193 9.99938 0Z" fill="url(#paint1_linear_144_218)"/>
<path d="M0 10C2.76131 10 5 7.76131 5 5C2.23807 5 0 7.23807 0 10Z" fill="url(#paint2_linear_144_218)"/>
<path d="M0 0C0 2.76131 2.23807 5 5 5C5 2.23807 2.76131 0 0 0Z" fill="url(#paint3_linear_144_218)"/>
</g>
<defs>
<linearGradient id="paint0_linear_144_218" x1="5" y1="7.5" x2="9.99938" y2="7.5" gradientUnits="userSpaceOnUse">
<stop stop-color="#FF323F"/>
<stop offset="1" stop-color="#FF37E4"/>
</linearGradient>
<linearGradient id="paint1_linear_144_218" x1="5" y1="2.5" x2="9.99938" y2="2.5" gradientUnits="userSpaceOnUse">
<stop stop-color="#FF323F"/>
<stop offset="1" stop-color="#FF37E4"/>
</linearGradient>
<linearGradient id="paint2_linear_144_218" x1="0" y1="7.5" x2="5" y2="7.5" gradientUnits="userSpaceOnUse">
<stop stop-color="#FF323F"/>
<stop offset="1" stop-color="#FF37E4"/>
</linearGradient>
<linearGradient id="paint3_linear_144_218" x1="0" y1="2.5" x2="5" y2="2.5" gradientUnits="userSpaceOnUse">
<stop stop-color="#FF323F"/>
<stop offset="1" stop-color="#FF37E4"/>
</linearGradient>
<clipPath id="clip0_144_218">
<rect width="9.99938" height="10" fill="white"/>
</clipPath>
</defs>
</svg>
