<svg width="50" height="50" viewBox="0 0 50 50" fill="none" xmlns="http://www.w3.org/2000/svg">
<path d="M47.4609 12.5V18.75C47.4609 20.3672 46.1484 21.6797 44.5312 21.6797H43.9453V10.1562C43.9453 9.96094 43.9297 9.76562 43.9062 9.57031H44.5312C46.1484 9.57031 47.4609 10.8828 47.4609 12.5Z" fill="#9E9E9E"/>
<path d="M13.9062 9.57031C13.8828 9.76562 13.8672 9.96094 13.8672 10.1562V21.6797H13.2812C11.6641 21.6797 10.3516 20.3672 10.3516 18.75V12.5C10.3516 10.8828 11.6641 9.57031 13.2812 9.57031H13.9062Z" fill="#9E9E9E"/>
<path d="M36.5234 4.6875V5.27344H21.2891V4.6875C21.2891 3.5 22.25 2.53906 23.4375 2.53906H34.375C35.5625 2.53906 36.5234 3.5 36.5234 4.6875Z" fill="#9E9E9E"/>
<path d="M34.375 15.8203C34.9143 15.8203 35.3516 15.3831 35.3516 14.8438C35.3516 14.3044 34.9143 13.8672 34.375 13.8672C33.8357 13.8672 33.3984 14.3044 33.3984 14.8438C33.3984 15.3831 33.8357 15.8203 34.375 15.8203Z" fill="#9E9E9E"/>
<path d="M23.4375 15.8203C23.9768 15.8203 24.4141 15.3831 24.4141 14.8438C24.4141 14.3044 23.9768 13.8672 23.4375 13.8672C22.8982 13.8672 22.4609 14.3044 22.4609 14.8438C22.4609 15.3831 22.8982 15.8203 23.4375 15.8203Z" fill="#9E9E9E"/>
<path d="M39.0625 6.44531H18.75C16.7038 6.44531 15.0391 8.11008 15.0391 10.1562V25.7812C15.0391 27.8274 16.7038 29.4922 18.75 29.4922H31.0444L37.4275 34.5985C37.6763 34.7977 37.9757 34.8998 38.2789 34.8998C38.4799 34.8998 38.6829 34.8541 38.8736 34.7625C39.3516 34.5329 39.6484 34.0606 39.6484 33.5304V29.4456C41.4173 29.1641 42.7734 27.6283 42.7734 25.7812V10.1562C42.7734 8.11008 41.1087 6.44531 39.0625 6.44531ZM23.4375 12.6953C24.6223 12.6953 25.5859 13.6589 25.5859 14.8438C25.5859 16.0286 24.6223 16.9922 23.4375 16.9922C22.2527 16.9922 21.2891 16.0286 21.2891 14.8438C21.2891 13.6589 22.2527 12.6953 23.4375 12.6953ZM35.7094 22.1199C33.8581 23.851 31.4419 24.8047 28.9062 24.8047C26.3706 24.8047 23.9544 23.851 22.1031 22.1199C21.8666 21.8987 21.8544 21.5279 22.0753 21.2914C22.297 21.0564 22.6677 21.0442 22.9035 21.2639C24.537 22.7913 26.669 23.6328 28.9063 23.6328C31.1437 23.6328 33.2757 22.7913 34.9091 21.2639C35.1452 21.0442 35.5161 21.0564 35.7373 21.2914C35.9582 21.5279 35.9459 21.8987 35.7094 22.1199ZM34.375 16.9922C33.1902 16.9922 32.2266 16.0286 32.2266 14.8438C32.2266 13.6589 33.1902 12.6953 34.375 12.6953C35.5598 12.6953 36.5234 13.6589 36.5234 14.8438C36.5234 16.0286 35.5598 16.9922 34.375 16.9922Z" fill="#9E9E9E"/>
<path d="M38.2791 36.0719C37.7069 36.0719 37.1439 35.8728 36.6937 35.5119L30.6337 30.6642H18.7502C16.0578 30.6642 13.8674 28.4738 13.8674 25.7814V22.8517H13.2815C11.0197 22.8517 9.17989 21.0114 9.17989 18.7501V17.2607C6.47114 20.0276 4.64864 23.6671 4.20934 27.7131C3.84348 31.0814 4.42411 34.4437 5.88856 37.4536L4.06434 44.2613C3.93653 44.7389 4.06895 45.2325 4.41833 45.5819C4.76817 45.9314 5.26255 46.0641 5.73895 45.9359L11.7856 44.3154C14.7687 46.3784 18.2397 47.4611 21.8682 47.4611C22.0269 47.4611 22.186 47.4588 22.3454 47.455C29.6668 47.2656 35.92 42.5463 38.4478 36.0526C38.3913 36.0565 38.3355 36.0719 38.2791 36.0719Z" fill="#9E9E9E"/>
</svg>
