<svg width="50" height="50" viewBox="0 0 50 50" fill="none" xmlns="http://www.w3.org/2000/svg">
<g clip-path="url(#clip0_153_1029)">
<path fill-rule="evenodd" clip-rule="evenodd" d="M1.85547 38.8231V40.8464C1.85547 41.2778 1.50566 41.6276 1.07422 41.6276C0.642773 41.6276 0.292969 41.2778 0.292969 40.8464V38.8231C0.292969 38.3917 0.642773 38.0419 1.07422 38.0419C1.50566 38.0419 1.85547 38.3917 1.85547 38.8231ZM9.77451 35.8523C9.34307 35.8523 8.99326 36.2022 8.99326 36.6336V43.0359C8.99326 43.4674 9.34307 43.8172 9.77451 43.8172C10.206 43.8172 10.5558 43.4674 10.5558 43.0359V36.6336C10.5558 36.2022 10.206 35.8523 9.77451 35.8523ZM18.4748 30.353C18.0434 30.353 17.6936 30.7028 17.6936 31.1343V48.5353C17.6936 48.9667 18.0434 49.3165 18.4748 49.3165C18.9062 49.3165 19.2561 48.9667 19.2561 48.5353V31.1343C19.2561 30.7028 18.9062 30.353 18.4748 30.353ZM14.1247 34.1287C13.6933 34.1287 13.3435 34.4785 13.3435 34.91V44.7596C13.3435 45.191 13.6933 45.5408 14.1247 45.5408C14.5562 45.5408 14.906 45.191 14.906 44.7596V34.91C14.906 34.4785 14.5562 34.1287 14.1247 34.1287ZM22.825 34.6211C22.3936 34.6211 22.0437 34.9709 22.0437 35.4023V44.2671C22.0437 44.6985 22.3936 45.0483 22.825 45.0483C23.2564 45.0483 23.6062 44.6985 23.6062 44.2671V35.4023C23.6062 34.9709 23.2564 34.6211 22.825 34.6211ZM5.42441 34.0454C4.99297 34.0454 4.64316 34.3952 4.64316 34.8267V44.8429C4.64316 45.2743 4.99297 45.6241 5.42441 45.6241C5.85586 45.6241 6.20566 45.2743 6.20566 44.8429V34.8267C6.20566 34.3952 5.85586 34.0454 5.42441 34.0454ZM40.2255 35.8523C39.794 35.8523 39.4442 36.2022 39.4442 36.6336V43.0359C39.4442 43.4674 39.794 43.8172 40.2255 43.8172C40.6569 43.8172 41.0067 43.4674 41.0067 43.0359V36.6336C41.0067 36.2022 40.6569 35.8523 40.2255 35.8523ZM35.8754 34.1287C35.4439 34.1287 35.0941 34.4785 35.0941 34.91V44.7596C35.0941 45.191 35.4439 45.5408 35.8754 45.5408C36.3068 45.5408 36.6566 45.191 36.6566 44.7596V34.91C36.6566 34.4785 36.3068 34.1287 35.8754 34.1287ZM44.5757 34.0454C44.1442 34.0454 43.7944 34.3952 43.7944 34.8267V44.8429C43.7944 45.2743 44.1442 45.6241 44.5757 45.6241C45.0071 45.6241 45.3569 45.2743 45.3569 44.8429V34.8267C45.3569 34.3952 45.0071 34.0454 44.5757 34.0454ZM31.5252 30.353C31.0938 30.353 30.7439 30.7028 30.7439 31.1343V48.5353C30.7439 48.9667 31.0938 49.3165 31.5252 49.3165C31.9566 49.3165 32.3064 48.9667 32.3064 48.5353V31.1343C32.3064 30.7028 31.9566 30.353 31.5252 30.353ZM48.9258 38.0419C48.4943 38.0419 48.1445 38.3917 48.1445 38.8231V40.8464C48.1445 41.2778 48.4943 41.6276 48.9258 41.6276C49.3572 41.6276 49.707 41.2778 49.707 40.8464V38.8231C49.707 38.3917 49.3572 38.0419 48.9258 38.0419ZM27.1751 34.6211C26.7437 34.6211 26.3938 34.9709 26.3938 35.4023V44.2671C26.3938 44.6985 26.7437 45.0483 27.1751 45.0483C27.6065 45.0483 27.9563 44.6985 27.9563 44.2671V35.4023C27.9563 34.9709 27.6065 34.6211 27.1751 34.6211ZM23.2445 21.8805H26.7554C28.7955 21.8805 30.4647 20.2112 30.4647 18.1711V17.6938H28.5246C28.0932 17.6938 27.7434 17.3439 27.7434 16.9125C27.7434 16.4811 28.0932 16.1313 28.5246 16.1313H30.4647V14.8233H28.5246C28.0932 14.8233 27.7434 14.4735 27.7434 14.0421C27.7434 13.6106 28.0932 13.2608 28.5246 13.2608H30.4647V11.9529H28.5246C28.0932 11.9529 27.7434 11.6031 27.7434 11.1717C27.7434 10.7402 28.0932 10.3904 28.5246 10.3904H30.4647V9.08252H28.5246C28.0932 9.08252 27.7434 8.73271 27.7434 8.30127C27.7434 7.86982 28.0932 7.52002 28.5246 7.52002H30.4647V6.21211H28.5246C28.0932 6.21211 27.7434 5.8623 27.7434 5.43086C27.7434 4.99941 28.0932 4.64961 28.5246 4.64961H30.4647V4.39297C30.4647 2.35283 28.7955 0.683594 26.7554 0.683594H23.2445C21.2044 0.683594 19.5352 2.35283 19.5352 4.39297V4.64961H21.4753C21.9067 4.64961 22.2565 4.99941 22.2565 5.43086C22.2565 5.8623 21.9067 6.21211 21.4753 6.21211H19.5352V7.52002H21.4753C21.9067 7.52002 22.2565 7.86982 22.2565 8.30127C22.2565 8.73271 21.9067 9.08252 21.4753 9.08252H19.5352V10.3904H21.4753C21.9067 10.3904 22.2565 10.7402 22.2565 11.1717C22.2565 11.6031 21.9067 11.9529 21.4753 11.9529H19.5352V13.2608H21.4753C21.9067 13.2608 22.2565 13.6106 22.2565 14.0421C22.2565 14.4735 21.9067 14.8233 21.4753 14.8233H19.5352V16.1313H21.4753C21.9067 16.1313 22.2565 16.4811 22.2565 16.9125C22.2565 17.3439 21.9067 17.6938 21.4753 17.6938H19.5352V18.1711C19.5352 20.2112 21.2044 21.8805 23.2445 21.8805ZM33.4677 15.121C33.0362 15.121 32.6864 15.4708 32.6864 15.9022V18.1711C32.6864 19.8013 32.0189 21.2839 30.9436 22.3593C29.8682 23.4347 28.3855 24.1021 26.7554 24.1021H23.2446C21.6144 24.1021 20.1318 23.4347 19.0564 22.3593C17.9811 21.2839 17.3136 19.8013 17.3136 18.1711V15.9022C17.3136 15.4708 16.9638 15.121 16.5323 15.121C16.1009 15.121 15.7511 15.4708 15.7511 15.9022V18.1711C15.7511 20.2326 16.5939 22.1063 17.9517 23.4641C19.3095 24.8219 21.1831 25.6646 23.2446 25.6646H24.2188V28.7422C23.7256 28.7784 23.2401 28.8485 22.7647 28.9503C22.0218 29.1093 21.3079 29.3456 20.6321 29.6501C20.2395 29.8271 20.0646 30.2889 20.2415 30.6815C20.4185 31.0742 20.8803 31.2491 21.2729 31.0722C21.8491 30.8126 22.4567 30.6113 23.0882 30.4762C23.7007 30.3451 24.3402 30.2761 25 30.2761C25.6598 30.2761 26.2992 30.3451 26.9118 30.4762C27.5433 30.6113 28.1509 30.8125 28.7271 31.0722C29.1197 31.2491 29.5815 31.0742 29.7585 30.6815C29.9354 30.2889 29.7605 29.8271 29.3679 29.6501C28.6921 29.3456 27.9783 29.1093 27.2354 28.9503C26.76 28.8485 26.2744 28.7784 25.7813 28.7422V25.6646H26.7555C28.817 25.6646 30.6906 24.8218 32.0484 23.4641C33.4062 22.1063 34.249 20.2326 34.249 18.1711V15.9022C34.249 15.4708 33.8991 15.121 33.4677 15.121Z" fill="#9E9E9E"/>
</g>
<defs>
<clipPath id="clip0_153_1029">
<rect width="50" height="50" fill="white"/>
</clipPath>
</defs>
</svg>
