<svg width="35" height="57" viewBox="0 0 35 57" fill="none" xmlns="http://www.w3.org/2000/svg">
<path d="M6.48597 12.1771C6.47894 12.4935 6.57158 12.8042 6.75115 13.0661C6.93072 13.3279 7.18835 13.5278 7.48799 13.6381C7.78763 13.7483 8.11446 13.7633 8.42314 13.6811C8.73182 13.5989 9.00683 13.4235 9.21017 13.1793L17.2719 3.86207L25.3309 13.1793C25.4562 13.3482 25.6154 13.4897 25.7986 13.5949C25.9818 13.7 26.185 13.7666 26.3953 13.7904C26.6057 13.8143 26.8187 13.7948 27.0211 13.7333C27.2235 13.6719 27.411 13.5697 27.5717 13.4332C27.7324 13.2966 27.8627 13.1288 27.9548 12.94C28.047 12.7512 28.0987 12.5457 28.1069 12.3362C28.115 12.1267 28.0795 11.9178 28.0024 11.7226C27.9252 11.5274 27.8082 11.35 27.6586 11.2017L18.4403 0.534264C18.2959 0.366745 18.1167 0.232226 17.9148 0.139986C17.7128 0.0477467 17.4929 -1.90735e-05 17.2705 -1.90735e-05C17.0481 -1.90735e-05 16.8282 0.0477467 16.6263 0.139986C16.4243 0.232226 16.2449 0.366745 16.1005 0.534264L6.87337 11.2017C6.63162 11.4712 6.49453 11.8168 6.48597 12.1771Z" fill="#4E4E4E"/>
<g clip-path="url(#clip0_168_11802)">
<path d="M17.2974 39.0981C17.2974 48.6507 25.0399 56.3954 34.5925 56.3954C34.5925 46.8428 26.85 39.0981 17.2974 39.0981Z" fill="url(#paint0_linear_168_11802)"/>
<path d="M34.5925 21.8003C25.0399 21.8003 17.2974 29.5428 17.2974 39.0975C26.85 39.0975 34.5925 31.3551 34.5925 21.8003Z" fill="url(#paint1_linear_168_11802)"/>
<path d="M0 56.3954C9.5526 56.3954 17.2973 48.6507 17.2973 39.0981C7.7425 39.0981 0 46.8406 0 56.3954Z" fill="url(#paint2_linear_168_11802)"/>
<path d="M0 21.8003C0 31.3529 7.7425 39.0975 17.2973 39.0975C17.2973 29.5428 9.5526 21.8003 0 21.8003Z" fill="url(#paint3_linear_168_11802)"/>
</g>
<defs>
<linearGradient id="paint0_linear_168_11802" x1="17.2974" y1="47.7468" x2="34.5925" y2="47.7468" gradientUnits="userSpaceOnUse">
<stop stop-color="#FF323F"/>
<stop offset="1" stop-color="#FF37E4"/>
</linearGradient>
<linearGradient id="paint1_linear_168_11802" x1="17.2974" y1="30.4489" x2="34.5925" y2="30.4489" gradientUnits="userSpaceOnUse">
<stop stop-color="#FF323F"/>
<stop offset="1" stop-color="#FF37E4"/>
</linearGradient>
<linearGradient id="paint2_linear_168_11802" x1="0" y1="47.7468" x2="17.2973" y2="47.7468" gradientUnits="userSpaceOnUse">
<stop stop-color="#FF323F"/>
<stop offset="1" stop-color="#FF37E4"/>
</linearGradient>
<linearGradient id="paint3_linear_168_11802" x1="0" y1="30.4489" x2="17.2973" y2="30.4489" gradientUnits="userSpaceOnUse">
<stop stop-color="#FF323F"/>
<stop offset="1" stop-color="#FF37E4"/>
</linearGradient>
<clipPath id="clip0_168_11802">
<rect width="34.5937" height="34.5945" fill="white" transform="translate(0 21.8003)"/>
</clipPath>
</defs>
</svg>
