<svg width="40" height="40" viewBox="0 0 40 40" fill="none" xmlns="http://www.w3.org/2000/svg">
<path fill-rule="evenodd" clip-rule="evenodd" d="M16.0857 37.2458H21.2724V37.564C21.2724 38.427 20.5653 39.1373 19.7025 39.1373H17.6589C16.796 39.1373 16.0857 38.427 16.0857 37.564V37.2458ZM14.4735 34.0993H22.8878V34.4176C22.8878 35.2837 22.1774 35.9909 21.3146 35.9909H16.0467C15.1807 35.9909 14.4735 35.2837 14.4735 34.4176V34.0993ZM12.9003 30.9528H24.4581L24.4578 31.2712C24.4578 32.1373 23.7506 32.8444 22.8878 32.8444H14.4735C13.6074 32.8444 12.9003 32.1373 12.9003 31.2712V30.9528ZM24.5291 28.8007C24.5022 29.0876 24.4793 29.3864 24.4611 29.6979H12.9003C12.4364 21.7767 9.00129 22.0979 9.00129 16.7229C9.00129 11.3772 13.3349 7.04358 18.6807 7.04358C24.0264 7.04358 28.36 11.3772 28.36 16.7229C28.36 17.3016 28.3202 17.8142 28.2486 18.2783C27.7714 18.215 27.2847 18.1824 26.7902 18.1824C23.0545 18.1824 19.7547 20.0441 17.7655 22.8886C17.4636 23.3204 17.4635 23.8947 17.7653 24.3266C19.3418 26.5825 21.7416 28.2188 24.5291 28.8007ZM26.1619 14.8895V16.2314C26.1619 16.5777 26.4431 16.8589 26.7894 16.8589C27.1357 16.8589 27.4168 16.5777 27.4168 16.2314V14.8895C27.4168 14.5433 27.1357 14.2621 26.7894 14.2621C26.4431 14.2621 26.1619 14.5433 26.1619 14.8895ZM17.3262 20.1862L18.4883 20.8571C18.7882 21.0303 19.1723 20.9274 19.3454 20.6275C19.5185 20.3276 19.4156 19.9435 19.1157 19.7704L17.9536 19.0994C17.6538 18.9263 17.2697 19.0292 17.0965 19.3291C16.9234 19.629 17.0263 20.0131 17.3262 20.1862ZM21.1572 16.5668L21.8282 17.7289C22.0013 18.0288 22.3854 18.1317 22.6853 17.9586C22.9852 17.7854 23.0881 17.4013 22.9149 17.1015L22.244 15.9393C22.0709 15.6394 21.6868 15.5365 21.3869 15.7097C21.087 15.8828 20.9841 16.2669 21.1572 16.5668ZM19.3081 3.77064C19.3081 4.11691 19.0269 4.39809 18.6807 4.39809C18.3344 4.39809 18.0532 4.11691 18.0532 3.77064V1.49024C18.0532 1.14397 18.3344 0.862793 18.6807 0.862793C19.0269 0.862793 19.3081 1.14397 19.3081 1.49024V3.77064ZM11.9225 5.4133C12.0955 5.7133 11.9924 6.0973 11.6923 6.27024C11.3923 6.44311 11.0083 6.33997 10.8353 6.03989L9.69674 4.06444C9.52388 3.76444 9.62702 3.38044 9.9271 3.2075C10.2271 3.03456 10.6111 3.13777 10.784 3.43785L11.9225 5.4133ZM6.35047 10.5291C6.65031 10.7024 6.75306 11.0865 6.57972 11.3863C6.40647 11.6861 6.02231 11.7888 5.72247 11.6156L3.74702 10.4738C3.44725 10.3004 3.34451 9.91636 3.51784 9.61652C3.6911 9.31668 4.07517 9.21401 4.37502 9.38726L6.35047 10.5291ZM26.5224 6.0406C26.3491 6.34044 25.965 6.44311 25.6651 6.26985C25.3653 6.09652 25.2625 5.71244 25.4359 5.4126L26.5777 3.43715C26.7509 3.1373 27.1351 3.03464 27.4349 3.20789C27.7347 3.38122 27.8374 3.7653 27.6641 4.06515L26.5224 6.0406ZM31.6392 11.6153C31.3395 11.7888 30.9553 11.6864 30.7818 11.3867C30.6083 11.0869 30.7108 10.7028 31.0105 10.5293L32.9826 9.3875C33.2824 9.21401 33.6665 9.31644 33.84 9.61613C34.0135 9.91581 33.9111 10.3 33.6114 10.4735L31.6392 11.6153ZM26.7902 19.4373C30.0987 19.4373 33.0223 21.0873 34.7849 23.6077C33.0223 26.1299 30.0987 27.7782 26.7902 27.7782C23.4801 27.7782 20.5564 26.1299 18.7938 23.6077C20.5564 21.0873 23.4801 19.4373 26.7902 19.4373ZM26.7901 25.7865C27.9903 25.7865 28.9681 24.8073 28.9681 23.6071C28.9681 22.4068 27.9903 21.4291 26.7901 21.4291C25.5898 21.4291 24.6107 22.4068 24.6107 23.6071C24.6107 24.8073 25.5898 25.7865 26.7901 25.7865ZM31.3348 15.9393C31.508 15.6394 31.892 15.5365 32.1919 15.7097C32.4918 15.8828 32.5947 16.2669 32.4215 16.5668L31.7506 17.7289C31.5774 18.0288 31.1934 18.1317 30.8935 17.9586C30.5936 17.7854 30.4907 17.4013 30.6639 17.1015L31.3348 15.9393ZM35.6251 19.0994C35.9251 18.9263 36.3091 19.0292 36.4822 19.3291C36.6554 19.629 36.5525 20.0131 36.2526 20.1862L35.0905 20.8571C34.7906 21.0303 34.4065 20.9274 34.2334 20.6275C34.0603 20.3276 34.1632 19.9435 34.463 19.7704L35.6251 19.0994Z" fill="#9E9E9E"/>
</svg>
