<svg width="40" height="40" viewBox="0 0 40 40" fill="none" xmlns="http://www.w3.org/2000/svg">
<path d="M4.73462 18.9241C5.0254 19.4248 5.02095 20.0467 4.73111 20.547C4.49884 20.9478 4.59329 21.4463 4.95759 21.733C5.47915 22.1434 6.05525 22.4745 6.67212 22.7194C7.10243 22.8902 7.58032 22.7241 7.81142 22.3227C8.434 21.241 10.0013 21.2455 10.6179 22.3244C10.849 22.7288 11.3312 22.8906 11.7599 22.7196C12.3651 22.4783 12.9561 22.1377 13.467 21.7335C13.8306 21.4458 13.9309 20.9487 13.6977 20.546C13.0709 19.4633 13.8531 18.1145 15.1021 18.1145C15.5656 18.1145 15.944 17.7841 16.0111 17.3262C16.1071 16.6709 16.1088 16.0057 16.0146 15.3502C15.9484 14.8898 15.5656 14.5605 15.0984 14.5605C13.853 14.5605 13.0702 13.212 13.6977 12.1289C13.9302 11.7277 13.8356 11.2289 13.4711 10.9419C12.9499 10.5313 12.3738 10.2002 11.7569 9.95562C11.3269 9.78523 10.8486 9.95328 10.617 10.353C9.99017 11.4349 8.43118 11.4302 7.81134 10.3512C7.57931 9.9475 7.10079 9.78336 6.66876 9.95547C6.06556 10.1957 5.47142 10.5404 4.96134 10.942C4.59587 11.2296 4.49751 11.7258 4.73111 12.1289C5.35798 13.2109 4.57868 14.5605 3.32673 14.5605C2.86345 14.5605 2.48126 14.8903 2.41407 15.3488C2.31806 16.0041 2.31993 16.6702 2.41415 17.3255C2.4804 17.7859 2.86329 18.1145 3.33032 18.1145C3.90915 18.1145 4.44415 18.4238 4.73462 18.9241ZM7.05587 15.7601C7.56368 13.8487 10.1539 13.4958 11.1477 15.2211C11.763 16.2893 11.4061 17.651 10.3308 18.2719C8.61376 19.2633 6.54642 17.6778 7.05587 15.7601ZM11.0621 36.9433C11.1148 37.0037 11.0489 37.0959 10.9745 37.0684C9.53103 36.5336 8.17525 35.8179 7.11775 34.6742C5.67204 33.1108 5.14532 31.1204 5.12431 29.0285L5.12134 28.733L3.91892 28.6781C3.84345 28.6747 3.82298 28.5858 3.8647 28.5445L6.53353 25.9042C6.56376 25.8741 6.61712 25.8756 6.64689 25.911L9.06118 28.7813C9.10634 28.835 9.06462 28.913 8.99306 28.9101L7.78267 28.8548L7.76306 29.1609C7.55579 32.3944 9.04243 34.6256 11.0621 36.9433ZM4.37001 7.97781C5.16337 6.65859 6.11861 5.45969 7.439 4.6332C9.24072 3.50547 11.3052 3.35625 13.3607 3.72367L13.6519 3.7757L13.9295 2.59906C13.9418 2.54469 14.027 2.51891 14.0674 2.57898L16.1635 5.68836C16.1764 5.70742 16.1797 5.73109 16.1761 5.75351C16.17 5.77336 16.156 5.79031 16.1379 5.80047L12.8676 7.63797C12.8068 7.67211 12.7395 7.61383 12.7541 7.5518L13.033 6.37086L12.7363 6.29453C9.63423 5.49703 7.10946 6.52484 4.47478 8.08523C4.40782 8.12508 4.32892 8.04617 4.37001 7.97781ZM37.6572 28.5557C37.6621 28.6226 37.5823 28.6641 37.5298 28.6225L36.5851 27.8755L36.3892 28.096C34.7931 29.8914 32.841 31.0864 30.3893 31.0864C29.1127 31.0864 27.8854 30.7665 26.6992 30.3176C26.6242 30.2892 26.6298 30.1789 26.7156 30.167C29.7593 29.7442 32.3454 29.0363 34.3103 26.4612L34.4962 26.2176L33.5434 25.4604C33.492 25.4201 33.5168 25.3353 33.5836 25.3248L37.2892 24.7444C37.3349 24.7372 37.3737 24.7727 37.3796 24.821L37.6572 28.5557ZM23.6913 29.2286C22.4349 29.2286 21.6606 27.8708 22.2832 26.7962C22.5156 26.3953 22.4199 25.8969 22.0563 25.6097C21.5375 25.2 20.9597 24.8682 20.3456 24.6236C19.9162 24.4526 19.437 24.6198 19.2066 25.0203C18.5831 26.1037 17.0164 26.0977 16.3968 25.0194C16.1665 24.6185 15.6877 24.4516 15.2584 24.6234C14.6502 24.8667 14.0652 25.2052 13.5502 25.6101C13.1849 25.8973 13.0868 26.3941 13.3202 26.7969C13.9442 27.8737 13.1725 29.2285 11.9158 29.2285C11.4526 29.2285 11.0703 29.5582 11.0032 30.0167C10.9072 30.6723 10.909 31.3378 11.0033 31.9934C11.0697 32.4547 11.4487 32.7825 11.9195 32.7825C13.1643 32.7825 13.9432 34.1398 13.3202 35.2148C13.0877 35.616 13.1833 36.114 13.547 36.4012C14.067 36.8116 14.6456 37.1429 15.2612 37.3873C15.6916 37.5582 16.1694 37.3919 16.4005 36.9905C17.0214 35.9117 18.5826 35.9086 19.2064 36.9912C19.4398 37.3963 19.9201 37.5586 20.3489 37.3875C20.9563 37.145 21.5427 36.8049 22.0568 36.4008C22.4213 36.1143 22.5154 35.6148 22.2831 35.2141C21.659 34.137 22.44 32.7825 23.6875 32.7825C24.1506 32.7825 24.533 32.4523 24.6002 31.9941C24.6962 31.3392 24.6999 30.6734 24.6038 30.0184C24.5366 29.5597 24.1552 29.2286 23.6913 29.2286ZM18.9198 32.9399C17.2024 33.9291 15.1334 32.3542 15.6451 30.428C15.9619 29.2356 17.189 28.5302 18.3798 28.8478C18.9566 29.0016 19.4382 29.3719 19.7367 29.8887C20.352 30.954 19.9864 32.3255 18.9198 32.9399ZM29.1805 25.8402C29.1761 23.7863 31.4075 22.5066 33.1761 23.5317C33.8013 23.8941 34.5798 23.7445 35.0276 23.1778C35.6875 22.3427 36.2231 21.4169 36.6177 20.4284C36.8859 19.7564 36.6262 19.0071 35.9987 18.6464C34.2188 17.6234 34.2188 15.0516 35.9987 14.0287C36.6265 13.6678 36.8859 12.919 36.6177 12.2466C36.2233 11.258 35.6877 10.3326 35.0276 9.49726C34.5796 8.93031 33.8013 8.78187 33.1758 9.14351C31.402 10.1692 29.1762 8.88476 29.1805 6.83476C29.182 6.10961 28.662 5.51078 27.9449 5.40726C26.8997 5.25633 25.8163 5.25633 24.7712 5.40726C24.054 5.51086 23.534 6.10961 23.5356 6.83476C23.5399 8.88219 21.3142 10.171 19.5401 9.14336C18.915 8.78125 18.1363 8.93062 17.6884 9.49726C17.0282 10.3327 16.4944 11.2591 16.0981 12.2471C15.8284 12.9197 16.0895 13.6677 16.7174 14.0286C18.4926 15.0489 18.4927 17.6259 16.7174 18.6463C16.0898 19.007 15.8284 19.7555 16.0981 20.4277C16.4945 21.4157 17.0282 22.3422 17.6884 23.1777C18.1363 23.7444 18.9148 23.894 19.5399 23.5316C21.3134 22.5034 23.5399 23.7927 23.5356 25.8401C23.534 26.5652 24.0539 27.1641 24.7711 27.2676C25.8189 27.4186 26.8971 27.4186 27.9449 27.2676C28.6621 27.1643 29.182 26.5654 29.1805 25.8402ZM22.702 16.338C22.702 14.322 24.3424 12.6832 26.358 12.6832C28.3742 12.6832 30.0103 14.3224 30.0103 16.338C30.0103 18.3581 28.3784 19.9919 26.358 19.9919C24.3428 19.9919 22.702 18.3535 22.702 16.338Z" fill="#9E9E9E"/>
</svg>
