<svg width="88" height="27" viewBox="0 0 88 27" fill="none" xmlns="http://www.w3.org/2000/svg">
<g clip-path="url(#clip0_2013_7)">
<path d="M25.4421 0C25.5437 0 25.6168 0.0420135 25.6605 0.124928C25.7042 0.208398 25.7114 0.295486 25.6822 0.386468L18.6532 17.5989C18.5803 17.7659 18.5691 17.9286 18.6203 18.0878C18.6713 18.2469 18.7695 18.3719 18.915 18.4628C19.5263 18.8571 20.0098 19.3763 20.3665 20.0204C20.723 20.6645 20.9013 21.3732 20.9013 22.1464C20.9013 22.783 20.7847 23.3704 20.5521 23.9085C20.3192 24.4463 20.0065 24.9123 19.6134 25.3069C19.2205 25.7008 18.7583 26.0002 18.2272 26.205C17.6958 26.4098 17.1321 26.4966 16.5355 26.4666C16.0116 26.4359 15.5239 26.311 15.0728 26.0915C14.6215 25.8717 14.2214 25.5834 13.8723 25.2276C13.5231 24.8712 13.2393 24.4544 13.0209 23.9769C12.8024 23.4995 12.6717 22.9953 12.628 22.465C12.5843 21.6464 12.7295 20.8882 13.0645 20.1912L15.8586 13.37C15.9312 13.2034 15.9164 13.0517 15.8149 12.9154C15.7128 12.7791 15.582 12.7109 15.422 12.7109H10.554C10.2048 12.7109 9.95721 12.8853 9.81169 13.234L8.06549 17.5541C7.77418 18.418 7.27975 19.1195 6.5811 19.6573C5.88246 20.1954 5.07502 20.4645 4.15796 20.4645C3.56114 20.4645 3.00439 20.3434 2.48799 20.1005C1.97158 19.8582 1.52029 19.5285 1.13465 19.1114C0.749298 18.6946 0.454647 18.2097 0.250701 17.6562C0.0470325 17.1031 -0.0330991 16.508 0.0105838 15.8714C0.0397984 15.3257 0.163335 14.818 0.381749 14.348C0.600164 13.8784 0.883964 13.4613 1.23315 13.0974C1.58233 12.7334 1.98633 12.4379 2.44458 12.2106C2.90312 11.9833 3.3942 11.8548 3.91812 11.8242C4.15072 11.8091 4.37999 11.8166 4.60564 11.847C4.83101 11.8776 5.04553 11.9229 5.24947 11.9833C5.39471 12.0287 5.52938 12.0175 5.65319 11.9491C5.77673 11.8809 5.86771 11.7785 5.92614 11.6422L7.51959 7.7085C7.59221 7.54184 7.57746 7.38658 7.47591 7.24246C7.3738 7.09861 7.24303 7.02655 7.08304 7.02655H5.51129C5.36577 7.02655 5.25643 6.96979 5.18381 6.85599C5.11091 6.74219 5.09644 6.61726 5.14012 6.48093L7.56383 0.409284C7.6217 0.288252 7.70573 0.189756 7.8148 0.113798C7.92387 0.0381182 8.04406 0 8.17511 0H14.6366C14.7529 0 14.8439 0.0534211 14.9095 0.15915C14.9749 0.265436 14.986 0.378956 14.9423 0.500267L11.3186 9.45888C11.2457 9.62582 11.2566 9.77718 11.3514 9.91352C11.446 10.0499 11.5732 10.118 11.7335 10.118H16.6668C17.0016 10.118 17.2417 9.95136 17.3872 9.61775L18.2823 7.41218C18.326 7.3212 18.3221 7.23801 18.2714 7.16205C18.2202 7.08637 18.1512 7.04825 18.0641 7.04825H16.6671C16.5942 7.04825 16.5361 7.01403 16.4924 6.94586C16.4487 6.87769 16.4412 6.80591 16.4707 6.72995L18.9587 0.363931C19.046 0.121589 19.213 0 19.4606 0H25.4418H25.4421Z" fill="white"/>
<path d="M29.1753 15.2342H30.0703C29.5609 16.2044 28.9933 17.0759 28.3675 17.8491C28.1057 18.1674 27.818 18.4857 27.5053 18.804C27.1923 19.1223 26.8576 19.403 26.5011 19.6454C26.1444 19.888 25.7699 20.0853 25.3771 20.2366C24.9842 20.3883 24.5766 20.4639 24.1545 20.4639C23.3393 20.4639 22.7536 20.3012 22.3972 19.9751C22.0408 19.6493 21.8262 19.24 21.7533 18.7472C21.6807 18.2547 21.7136 17.7242 21.8516 17.1557C21.9901 16.5873 22.1537 16.0681 22.3426 15.5982C22.4155 15.4771 22.4155 15.348 22.3426 15.2117L22.2336 14.9616C22.1899 14.8102 22.1899 14.6739 22.2336 14.5523L23.8927 10.4141C23.9653 10.2021 24.1181 10.0958 24.3512 10.0958H27.4291C27.6038 10.0958 27.7418 10.1754 27.8439 10.3345C27.9455 10.4937 27.9602 10.6567 27.8876 10.8234C27.4363 11.9452 27.0106 13.0061 26.6105 14.0067C26.2101 15.0072 25.8862 15.8182 25.6392 16.4395C25.61 16.5155 25.5771 16.6179 25.541 16.7464C25.5045 16.8753 25.4898 17.0044 25.4973 17.1329C25.5045 17.2617 25.5482 17.3716 25.6283 17.4626C25.7082 17.5536 25.8428 17.5989 26.032 17.5989C26.3812 17.5989 26.7415 17.4779 27.1127 17.235C27.4839 16.9927 27.8222 16.72 28.1277 16.4164C28.4769 16.0678 28.8264 15.6738 29.1755 15.2342H29.1753ZM24.7658 8.95863C24.6929 8.95863 24.6347 8.92441 24.5911 8.85624C24.5474 8.78808 24.5399 8.71629 24.5694 8.64033L25.879 5.41169C25.9369 5.24503 26.0607 5.16156 26.2502 5.16156H29.5244C29.6697 5.16156 29.7826 5.22222 29.8628 5.34353C29.9426 5.46511 29.9535 5.59366 29.8956 5.72999C29.7209 6.16988 29.5317 6.64734 29.328 7.16235C29.1241 7.67792 28.9057 8.22354 28.673 8.79948C28.6294 8.90577 28.564 8.95863 28.4766 8.95863H24.7658Z" fill="white"/>
<path d="M36.9027 4.57031C36.7424 4.96457 36.5388 5.47235 36.2914 6.09365C36.0438 6.7155 35.7747 7.38967 35.4837 8.11725C35.1924 8.84484 34.8869 9.60664 34.5669 10.4024C34.2467 11.1981 33.9373 11.9714 33.6393 12.7215C33.3407 13.4719 33.0608 14.1691 32.7987 14.8133C32.5369 15.4576 32.3185 15.9997 32.1438 16.439C32.1146 16.5149 32.0817 16.6173 32.0456 16.7459C32.0091 16.8747 31.9944 17.0038 32.0019 17.1323C32.0091 17.2612 32.0528 17.3711 32.1329 17.4621C32.2128 17.553 32.3474 17.5984 32.5366 17.5984C32.8858 17.5984 33.2461 17.4774 33.6173 17.2345C33.9885 16.9921 34.3268 16.7194 34.6323 16.4159C34.9815 16.0673 35.331 15.6733 35.6801 15.2337H36.5752C36.0658 16.2648 35.4982 17.1816 34.8724 17.9849C34.6106 18.3185 34.3229 18.6521 34.0102 18.9854C33.6972 19.319 33.3624 19.6145 33.006 19.8721C32.6493 20.13 32.2748 20.3382 31.8817 20.4973C31.4888 20.6565 31.0812 20.736 30.6594 20.736C29.8442 20.736 29.2585 20.5577 28.9021 20.2018C28.5456 19.846 28.3311 19.4061 28.2582 18.883C28.1856 18.3599 28.2184 17.7996 28.3564 17.2005C28.495 16.6018 28.6586 16.0675 28.8475 15.5976C28.9204 15.4766 28.9204 15.3475 28.8475 15.2111L28.7385 14.961C28.6948 14.8096 28.6948 14.6733 28.7385 14.5517L32.9078 4.13793C33.0389 3.88029 33.2353 3.75146 33.4971 3.75146H36.3785C36.5822 3.75146 36.7388 3.83883 36.8479 4.01301C36.957 4.18746 36.975 4.37332 36.9024 4.57003L36.9027 4.57031Z" fill="white"/>
<path d="M42.1196 15.2342H43.0147C42.505 16.2044 41.9376 17.0759 41.3119 17.8491C41.0501 18.1674 40.7624 18.4857 40.4496 18.804C40.1366 19.1223 39.8019 19.403 39.4455 19.6454C39.0888 19.888 38.7143 20.0853 38.3214 20.2366C37.9285 20.3883 37.5209 20.4639 37.0988 20.4639C36.2836 20.4639 35.6979 20.3012 35.3415 19.9751C34.9851 19.6493 34.7706 19.24 34.6977 18.7472C34.6251 18.2547 34.6579 17.7242 34.7959 17.1557C34.9345 16.5873 35.0981 16.0681 35.287 15.5982C35.3599 15.4771 35.3599 15.348 35.287 15.2117L35.1779 14.9616C35.1342 14.8102 35.1342 14.6739 35.1779 14.5523L36.837 10.4141C36.9096 10.2021 37.0624 10.0958 37.2956 10.0958H40.3734C40.5481 10.0958 40.6861 10.1754 40.7882 10.3345C40.8898 10.4937 40.9045 10.6567 40.8319 10.8234C40.3806 11.9452 39.9549 13.0061 39.5548 14.0067C39.1544 15.0072 38.8306 15.8182 38.5835 16.4395C38.5543 16.5155 38.5215 16.6179 38.4853 16.7464C38.4488 16.8753 38.4341 17.0044 38.4416 17.1329C38.4488 17.2617 38.4925 17.3716 38.5727 17.4626C38.6525 17.5536 38.7872 17.5989 38.9764 17.5989C39.3256 17.5989 39.6859 17.4779 40.0568 17.235C40.4279 16.9927 40.7663 16.72 41.0718 16.4164C41.4209 16.0678 41.7704 15.6738 42.1196 15.2342ZM37.7101 8.95863C37.6372 8.95863 37.5791 8.92441 37.5354 8.85624C37.4917 8.78808 37.4842 8.71629 37.5134 8.64033L38.8231 5.41169C38.8809 5.24503 39.0048 5.16156 39.1942 5.16156H42.4685C42.6137 5.16156 42.7267 5.22222 42.8068 5.34353C42.8867 5.46511 42.8975 5.59366 42.8397 5.72999C42.6649 6.16988 42.4757 6.64734 42.2721 7.16235C42.0681 7.67792 41.8497 8.22354 41.6171 8.79948C41.5734 8.90577 41.508 8.95863 41.4207 8.95863H37.7098H37.7101Z" fill="white"/>
<path d="M58.9931 15.3252H59.7351C59.3128 16.2801 58.8473 17.1368 58.3381 17.8944C58.1197 18.2127 57.876 18.5274 57.6069 18.8379C57.3376 19.1487 57.0502 19.4217 56.7447 19.6565C56.4392 19.8916 56.1186 20.085 55.7842 20.2363C55.4492 20.388 55.0928 20.4636 54.7147 20.4636C54.1615 20.4636 53.7069 20.3727 53.3502 20.1907C52.9935 20.0087 52.7461 19.721 52.6081 19.3268C52.4696 18.9328 52.4515 18.4211 52.5536 17.792C52.6552 17.1632 52.8811 16.4089 53.2303 15.5297C53.2592 15.4844 53.2812 15.4126 53.2957 15.3138C53.3098 15.2153 53.3137 15.1171 53.3065 15.0183C53.299 14.9198 53.2737 14.8363 53.23 14.7682C53.1863 14.7 53.1134 14.6658 53.0116 14.6658C52.8224 14.6658 52.6513 14.7264 52.4985 14.8477C52.3458 14.9693 52.2072 15.1132 52.0837 15.2798C51.9598 15.4468 51.8544 15.6249 51.767 15.8141C51.6797 16.0038 51.6068 16.1666 51.5486 16.3029C51.5486 16.3182 51.4902 16.466 51.3739 16.7464C51.2573 17.0272 51.119 17.3683 50.959 17.7695C50.7988 18.1713 50.6316 18.592 50.4571 19.0316C50.2824 19.4715 50.1296 19.8501 49.9986 20.1684C49.9257 20.3657 49.7874 20.4639 49.5837 20.4639H46.3965C46.2363 20.4639 46.1091 20.3958 46.0145 20.2594C45.9196 20.1231 45.9088 19.9717 45.9817 19.8048L47.357 16.3714C47.4296 16.1747 47.4914 15.9735 47.5426 15.7687C47.5935 15.5642 47.6224 15.3822 47.63 15.2231C47.6372 15.0639 47.6152 14.9315 47.5646 14.8252C47.5134 14.7192 47.4152 14.6661 47.2699 14.6661C46.9933 14.6661 46.7493 14.7609 46.5387 14.9501C46.3275 15.1399 46.142 15.3558 45.982 15.5981C45.7928 15.8711 45.6328 16.1819 45.5017 16.5305C45.2541 17.1671 45.0068 17.7923 44.7597 18.4064C44.5121 19.0202 44.2794 19.6078 44.061 20.1684C43.9881 20.3657 43.8426 20.4639 43.6245 20.4639H40.4593C40.2993 20.4639 40.1721 20.3958 40.0773 20.2594C39.9827 20.1231 39.9718 19.9717 40.0444 19.8048L41.9654 14.9844C41.9946 14.9087 41.9873 14.833 41.9437 14.757C41.8563 14.6661 41.8346 14.5523 41.8783 14.4159L43.5591 10.2321C43.6028 10.1411 43.6682 10.0958 43.7555 10.0958H46.3751C46.7532 10.0958 47.0443 10.2399 47.2482 10.5279C47.3793 10.6795 47.5245 10.7023 47.6848 10.596C48.0484 10.3687 48.4341 10.2135 48.8417 10.13C49.249 10.0468 49.6636 10.0051 50.0859 10.0051C50.6099 10.0051 51.0247 10.0543 51.3302 10.1528C51.6357 10.2516 51.8831 10.384 52.0723 10.5507C52.2907 10.7327 52.5377 10.8236 52.8146 10.8236C53.0183 10.8236 53.2219 10.7633 53.4259 10.6417C53.644 10.4903 53.9242 10.3576 54.2664 10.2438C54.6081 10.13 55.0121 10.0732 55.4778 10.0732C55.9436 10.0732 56.369 10.1795 56.7113 10.3915C57.0529 10.6041 57.315 10.8804 57.497 11.2215C57.6787 11.5626 57.7769 11.9416 57.7917 12.3584C57.8061 12.7755 57.7263 13.1961 57.5515 13.6205C57.4494 13.8934 57.3476 14.1586 57.246 14.4162C57.1587 14.6288 57.0749 14.8408 56.9951 15.0528C56.9149 15.2654 56.8457 15.4318 56.7878 15.5531C56.7441 15.6594 56.6821 15.8071 56.6022 15.9966C56.5221 16.1863 56.4636 16.3755 56.4275 16.565C56.391 16.7548 56.3946 16.9214 56.4383 17.0653C56.482 17.2094 56.5983 17.2812 56.7875 17.2812C57.0349 17.2812 57.2858 17.1788 57.5407 16.9743C57.795 16.7698 58.0318 16.5461 58.2502 16.3035C58.4975 16.0158 58.7446 15.6897 58.9922 15.3258L58.9931 15.3252Z" fill="white"/>
<path d="M69.231 14.552H70.0168C69.5218 15.6588 68.9036 16.6438 68.1612 17.508C67.8557 17.8719 67.5026 18.232 67.1025 18.5881C66.7022 18.9445 66.2584 19.2628 65.7709 19.543C65.2832 19.8237 64.7484 20.0472 64.1663 20.2138C63.584 20.3808 62.9582 20.464 62.2891 20.464H61.3723C60.7755 20.464 60.2407 20.324 59.7677 20.0433C59.2947 19.7628 58.9127 19.3838 58.6217 18.9064C58.3306 18.4289 58.1414 17.8683 58.0541 17.2239C57.9667 16.5798 58.0031 15.9015 58.1631 15.1889C58.3234 14.4766 58.5855 13.8058 58.9489 13.1767C59.3125 12.5479 59.7457 11.9984 60.2477 11.5282C60.7496 11.0585 61.2955 10.6868 61.8848 10.4141C62.4741 10.1412 63.067 10.0048 63.6638 10.0048C64.1149 10.0048 64.5442 10.0769 64.9518 10.2207C65.3591 10.3649 65.7192 10.5733 66.0325 10.8459C66.3452 11.1189 66.5962 11.4564 66.7856 11.8579C66.9746 12.2596 67.0694 12.7184 67.0694 13.2335C67.0694 13.9007 66.9565 14.4538 66.7311 14.8934C66.5052 15.3333 66.2253 15.6855 65.8905 15.9507C65.5556 16.2161 65.1955 16.402 64.8099 16.5077C64.424 16.614 64.0639 16.6669 63.7292 16.6669H63.0962C62.907 16.6519 62.7176 16.6327 62.5286 16.6101C62.3394 16.5873 62.1795 16.5534 62.0484 16.5077C62.0626 16.735 62.15 16.9398 62.3102 17.1215C62.4265 17.2885 62.6269 17.4362 62.9107 17.565C63.1945 17.6941 63.5982 17.7584 64.1221 17.7584C64.5294 17.7584 64.9587 17.6902 65.41 17.5539C65.8611 17.4176 66.294 17.2281 66.7088 16.9855C67.1237 16.7431 67.509 16.4663 67.8657 16.1555C68.2222 15.845 68.5168 15.5228 68.75 15.1892L69.2302 14.5526L69.231 14.552ZM62.0929 14.9613C62.0492 15.1282 62.0673 15.276 62.1475 15.4048C62.2273 15.5339 62.3472 15.5982 62.5078 15.5982C62.6683 15.5982 62.8169 15.5339 62.9552 15.4048C63.0932 15.2763 63.1844 15.1285 63.2281 14.9613C63.2718 14.7946 63.2534 14.6508 63.1736 14.5292C63.0935 14.4082 62.9733 14.3472 62.8133 14.3472C62.6533 14.3472 62.5003 14.4079 62.3547 14.5292C62.2092 14.6508 62.1219 14.7946 62.0929 14.9613Z" fill="white"/>
<path d="M79.9057 15.3252H80.6698C80.2474 16.2801 79.7747 17.1368 79.2508 17.8944C79.0323 18.2127 78.7922 18.5274 78.5304 18.8379C78.2686 19.1487 77.9848 19.4217 77.679 19.6565C77.3735 19.8916 77.0494 20.085 76.7077 20.2363C76.3657 20.388 76.0127 20.4637 75.649 20.4637C74.9359 20.4637 74.3972 20.3499 74.0336 20.1225C73.6696 19.8952 73.4476 19.5733 73.3678 19.1562C73.2876 18.7394 73.3241 18.2239 73.4768 17.6101C73.6296 16.9963 73.8588 16.3027 74.1643 15.5297C74.1933 15.4844 74.2189 15.4126 74.2409 15.3138C74.2628 15.2153 74.2737 15.1171 74.2737 15.0183C74.2737 14.9195 74.2553 14.8364 74.2192 14.7682C74.1827 14.7 74.1134 14.6658 74.0119 14.6658C73.8371 14.6658 73.6769 14.715 73.5316 14.8135C73.3861 14.9123 73.2512 15.0372 73.1279 15.1886C73.0041 15.3402 72.895 15.5033 72.8004 15.6775C72.7056 15.8519 72.6221 16.0072 72.5495 16.1435C72.2729 16.8257 72 17.5041 71.7309 18.1785C71.4616 18.8532 71.2034 19.5012 70.956 20.1225C70.8539 20.3499 70.6867 20.4637 70.4541 20.4637H67.1361C67.0198 20.4637 66.9288 20.4147 66.8632 20.3159C66.7978 20.2174 66.7867 20.1078 66.8303 19.9862L68.8386 14.9838C68.8676 14.9081 68.864 14.84 68.8278 14.7793C68.7916 14.7189 68.7371 14.6883 68.6642 14.6883L70.4541 10.2318C70.483 10.1409 70.5414 10.0955 70.6288 10.0955H73.2484C73.5976 10.0955 73.8886 10.2318 74.1215 10.5048C74.2231 10.6264 74.3469 10.6489 74.4927 10.573C74.6526 10.467 74.7982 10.3796 74.9292 10.3114C75.0603 10.2433 75.1766 10.1943 75.2784 10.1637C75.4384 10.1033 75.6201 10.0727 75.824 10.0727H76.2169C76.6534 10.0727 77.0499 10.179 77.4066 10.391C77.763 10.6036 78.0505 10.8799 78.2689 11.221C78.4873 11.5621 78.6217 11.941 78.6726 12.3578C78.7235 12.7749 78.6617 13.1956 78.487 13.6199C78.3849 13.8929 78.2831 14.158 78.1815 14.4157C78.0941 14.6282 78.0068 14.8403 77.9197 15.0523C77.8323 15.2648 77.7594 15.4312 77.7013 15.5525C77.6576 15.6588 77.5992 15.8066 77.5265 15.996C77.4536 16.1858 77.3991 16.375 77.3629 16.5645C77.3265 16.7542 77.3301 16.9209 77.3738 17.0647C77.4175 17.2089 77.5338 17.2807 77.723 17.2807C77.9556 17.2807 78.1996 17.1783 78.4542 16.9738C78.7085 16.7693 78.9453 16.5456 79.1637 16.3029C79.411 16.0152 79.6584 15.6891 79.9057 15.3252Z" fill="white"/>
<path d="M83.1582 17.5989C83.5074 17.5989 83.8677 17.4779 84.2389 17.235C84.6101 16.9926 84.9484 16.72 85.2539 16.4164C85.6031 16.0678 85.9525 15.6738 86.3017 15.2342H87.1968C86.6871 16.2044 86.1198 17.0758 85.494 17.849C85.2319 18.1673 84.9445 18.4856 84.6318 18.8039C84.3187 19.1222 83.984 19.403 83.6276 19.6453C83.2709 19.888 82.8964 20.0852 82.5035 20.2366C82.1107 20.3882 81.7031 20.4639 81.281 20.4639C80.4657 20.4639 79.8801 20.3011 79.5236 19.975C79.1672 19.6492 78.9527 19.2399 78.8798 18.7472C78.8072 18.2547 78.84 17.7241 78.978 17.1557C79.1166 16.5873 79.2802 16.0681 79.4691 15.5981C79.542 15.4771 79.542 15.348 79.4691 15.2117L79.36 14.9387C79.3164 14.8024 79.3164 14.6735 79.36 14.5522L81.1499 10.0957H79.862L80.6697 8.27665H81.8703L83.5948 4.00184C83.6674 3.83518 83.7912 3.75171 83.9659 3.75171H87.3713C87.4876 3.75171 87.5785 3.79706 87.6442 3.88804C87.7096 3.97903 87.7207 4.08531 87.677 4.20634C87.5168 4.57028 87.295 5.1159 87.0112 5.84348C86.7274 6.57107 86.4033 7.38212 86.0399 8.27637H87.7861L87.0004 10.0955H85.3196C85.0719 10.702 84.8246 11.3119 84.5775 11.926C84.3299 12.5398 84.0973 13.1235 83.8789 13.6766C83.6604 14.23 83.4532 14.7417 83.2567 15.2114C83.0603 15.6813 82.8964 16.0906 82.7656 16.4392C82.7364 16.5152 82.7036 16.6176 82.6674 16.7461C82.631 16.8749 82.6162 17.004 82.6237 17.1326C82.631 17.2614 82.6747 17.3713 82.7548 17.4623C82.8346 17.5533 82.9693 17.5986 83.1585 17.5986L83.1582 17.5989Z" fill="white"/>
</g>
<defs>
<clipPath id="clip0_2013_7">
<rect width="87.7859" height="26.4724" fill="white"/>
</clipPath>
</defs>
</svg>
