<svg width="144" height="38" viewBox="0 0 144 38" fill="none" xmlns="http://www.w3.org/2000/svg">
<g clip-path="url(#clip0_2013_27)">
<path d="M14.3071 0.131006C14.4924 0.218344 14.6183 0.393019 14.6838 0.655031C14.7275 0.830214 14.662 1.00489 14.4873 1.17906C14.3122 1.35424 14.0943 1.48524 13.8318 1.57207C13.5698 1.63758 13.3022 1.70308 13.029 1.76858C12.7558 1.83409 12.4882 1.91076 12.2262 1.9981C11.4178 2.28245 10.8339 2.68106 10.4734 3.19391C10.1128 3.70727 9.93258 4.37906 9.93258 5.20877V9.43549C9.91075 10.9649 9.89399 12.4938 9.88333 14.0227C9.87216 15.5522 9.84474 17.0811 9.80158 18.61C9.7574 19.6149 9.71983 20.6142 9.68682 21.6079C9.65382 22.6021 9.57206 23.5903 9.44106 24.5733C9.00386 28.0242 7.68263 31.0713 5.47634 33.7148C4.97365 34.3048 4.45521 34.8614 3.92001 35.3859C3.38431 35.9099 2.77853 36.3796 2.10166 36.795C1.75181 36.9915 1.39179 37.1113 1.02061 37.1555C0.91093 37.1555 0.779924 37.1113 0.627591 37.0245C0.474751 36.9371 0.376242 36.8386 0.332573 36.7295C0.288397 36.6198 0.288397 36.4837 0.332573 36.3197C0.376242 36.1557 0.441745 36.0297 0.529083 35.9429C1.68681 34.9157 2.57694 33.7691 3.19948 32.5027C3.82201 31.2358 4.24245 29.8486 4.46079 28.3415C4.5918 27.4895 4.67914 26.6328 4.7228 25.7696C4.76647 24.9069 4.80963 24.0386 4.85381 23.1647C4.89748 22.597 4.91373 22.0182 4.90306 21.4281C4.89189 20.8381 4.87564 20.2598 4.85381 19.6915L4.7553 11.4351V8.02743C4.7553 6.89204 4.80963 5.74498 4.91931 4.58725C4.98482 3.95405 4.88072 3.46811 4.60805 3.12942C4.33486 2.79124 3.97993 2.51248 3.54324 2.29413C3.10605 2.0763 2.65311 1.91228 2.18342 1.8026C1.71322 1.69343 1.23845 1.58477 0.758089 1.47509C0.539238 1.43142 0.365071 1.3715 0.234065 1.29483C0.104074 1.21815 0.0268922 1.05973 0.00556561 0.819043C-0.0386109 0.382355 0.180241 0.131006 0.660597 0.0655031C0.769768 0.0441765 0.873355 0.0274199 0.971863 0.0162488C1.07037 0.00558553 1.17345 0 1.28313 0H13.6683C13.9085 0 14.1212 0.0441765 14.3071 0.131006Z" fill="white"/>
<path d="M38.8634 25.7204C39.3219 25.7859 39.5296 26.0479 39.4859 26.5069C39.4418 26.7476 39.3494 26.9167 39.2077 27.0147C39.0655 27.1132 38.8964 27.162 38.6999 27.162C38.4592 27.1838 38.2135 27.1945 37.9626 27.1945H37.2253C36.3951 27.1945 35.5817 27.1894 34.7844 27.1782C33.9867 27.1676 33.1733 27.1731 32.3436 27.1945C31.885 27.2163 31.426 27.2493 30.9675 27.293C30.509 27.3372 30.0388 27.3798 29.5584 27.424C29.2741 27.4453 28.9902 27.4621 28.7064 27.4732C28.422 27.4839 28.1382 27.5002 27.8543 27.5225C27.3958 27.5225 27.1445 27.293 27.1008 26.8345C27.0566 26.6166 27.0952 26.447 27.2155 26.3267C27.3354 26.2068 27.4938 26.1251 27.6908 26.0809C28.1712 25.9941 28.6028 25.8245 28.9851 25.5731C29.367 25.3223 29.7438 25.0765 30.1154 24.8358C30.574 24.5302 30.8035 24.0716 30.8035 23.4598C30.8248 22.8921 30.7979 22.3351 30.7217 21.7887C30.6451 21.2428 30.4973 20.6965 30.2795 20.1506C30.1921 19.8886 30.0063 19.7576 29.7224 19.7576C29.0674 19.7794 28.4119 19.785 27.7563 19.7738C27.1013 19.7632 26.4458 19.7576 25.7902 19.7576C25.1347 19.7576 24.5126 19.7632 23.8571 19.7738C23.2016 19.785 22.5572 19.7794 21.924 19.7576C21.5965 19.7576 21.3883 19.8998 21.3015 20.1836C21.105 20.8828 20.9085 21.5709 20.7119 22.2477C20.5154 22.9251 20.3296 23.6131 20.1549 24.3118C20.1107 24.4215 20.1219 24.5576 20.1874 24.7216C20.2529 24.8856 20.3184 25.0222 20.3839 25.1314C20.7988 25.6777 21.3776 25.9834 22.1205 26.0489C22.2729 26.0931 22.4262 26.12 22.579 26.1307C22.7314 26.1418 22.8629 26.1799 22.9721 26.2454C23.0812 26.3328 23.1904 26.4475 23.2996 26.5897C23.4087 26.7319 23.4519 26.8573 23.4306 26.9665C23.3864 27.0975 23.294 27.2341 23.1523 27.3763C23.0101 27.5179 22.8847 27.589 22.7755 27.589C22.3384 27.6327 21.9123 27.6383 21.4975 27.6053C21.0821 27.5723 20.6566 27.556 20.2199 27.556C19.3679 27.5118 18.527 27.5118 17.6968 27.556C16.9539 27.5997 16.2222 27.6322 15.5017 27.6545C14.7806 27.6758 14.0601 27.6982 13.339 27.72C13.2294 27.72 13.1039 27.6545 12.9623 27.5235C12.8201 27.3925 12.7495 27.2833 12.7495 27.196C12.7708 27.0437 12.8257 26.8847 12.9135 26.7207C13.0004 26.5567 13.11 26.4313 13.241 26.3439C13.4812 26.1693 13.7432 26.0383 14.0276 25.9509C14.3114 25.8641 14.5846 25.7438 14.8466 25.5904C15.8073 25.0664 16.6487 24.4388 17.3693 23.7066C18.0903 22.9749 18.658 22.0847 19.0728 21.0362C19.5095 19.9008 19.9625 18.7705 20.4327 17.6452C20.9024 16.5205 21.3553 15.3795 21.7925 14.2213C21.9672 13.7628 22.1038 13.2931 22.2023 12.8122C22.3008 12.3319 22.3825 11.8515 22.448 11.3706C22.5349 10.934 22.4424 10.5679 22.1698 10.2728C21.8966 9.97782 21.5417 9.80924 21.105 9.76506H20.3839C20.1874 9.76506 20.0234 9.71581 19.8924 9.61781C19.7614 9.5193 19.7172 9.38321 19.7614 9.20803C19.7827 9.0557 19.8431 8.89676 19.9417 8.73275C20.0402 8.56874 20.1432 8.47633 20.2529 8.45449C20.6241 8.36766 21.0115 8.31282 21.4162 8.29048C21.8199 8.26915 22.219 8.24681 22.612 8.22498C23.7261 8.15947 24.829 8.12647 25.9212 8.12647C26.3579 8.10514 26.7839 8.10514 27.1988 8.12647C27.6136 8.1483 28.0285 8.18131 28.4438 8.22498C29.0334 8.29048 29.4594 8.60733 29.7214 9.17503C30.0708 10.0271 30.4308 10.8735 30.8025 11.7144C31.1737 12.5558 31.556 13.3911 31.949 14.2208C32.6914 15.8157 33.4343 17.399 34.1771 18.9715C34.9195 20.5441 35.6731 22.1167 36.4378 23.6898C36.6779 24.2138 36.9836 24.6566 37.3553 25.0166C37.7265 25.3771 38.2287 25.6122 38.8624 25.7209L38.8634 25.7204ZM29.5914 18.3155C28.8922 17.0268 28.2042 15.7817 27.5273 14.5803C26.8499 13.3794 26.1726 12.1668 25.4957 10.9436C25.4515 10.9654 25.414 10.9766 25.3809 10.9766C25.3479 10.9766 25.3099 10.9878 25.2662 11.0096C24.7422 12.211 24.2176 13.418 23.6936 14.6301C23.1696 15.8421 22.6339 17.0709 22.088 18.316H29.5909L29.5914 18.3155Z" fill="white"/>
<path d="M58.9485 23.3612C59.0795 23.3831 59.2156 23.4054 59.3583 23.4268C59.4999 23.4486 59.6254 23.5141 59.735 23.6233C59.8005 23.7106 59.8386 23.8309 59.8498 23.9838C59.8605 24.1366 59.8442 24.2681 59.8005 24.3768C59.7564 24.4865 59.6909 24.5896 59.604 24.6881C59.5167 24.7866 59.4182 24.8683 59.309 24.9338C58.2823 25.6985 57.2063 26.3099 56.0816 26.7684C54.9564 27.2269 53.7717 27.5433 52.5266 27.7185C49.0753 28.2207 45.9408 27.5433 43.1231 25.6869C41.8781 24.8572 40.9443 23.8467 40.3217 22.6559C39.6992 21.4657 39.4535 20.1166 39.5845 18.6095C39.781 16.5347 40.3817 14.7326 41.3866 13.2032C42.3909 11.6748 43.8437 10.4404 45.7443 9.501C46.6177 9.06431 47.5185 8.75304 48.4472 8.5672C49.3754 8.38186 50.3965 8.27776 51.5106 8.25593C52.1656 8.21226 52.8481 8.29452 53.5584 8.50169C54.2678 8.70937 54.9619 8.99881 55.6388 9.36999C56.01 9.58884 56.3598 9.67618 56.6874 9.632C57.0149 9.58833 57.3312 9.44667 57.6374 9.20598C57.7466 9.14048 57.8502 9.06431 57.9487 8.97646C58.0472 8.88963 58.1503 8.8348 58.2599 8.81245C58.4123 8.79113 58.5763 8.78554 58.7515 8.7962C58.9261 8.80738 59.0678 8.85663 59.1775 8.94346C59.2643 9.0308 59.3192 9.1679 59.3415 9.35323C59.3628 9.53908 59.3522 9.697 59.3085 9.82851C59.1988 10.1129 59.0734 10.3855 58.9317 10.6476C58.7896 10.9096 58.6535 11.1833 58.522 11.4666C57.9101 12.7117 57.3312 13.9354 56.7854 15.1363C56.7199 15.2673 56.6594 15.3932 56.6051 15.5131C56.5503 15.6334 56.4903 15.7482 56.4248 15.8568C56.1842 16.2285 55.8566 16.327 55.4418 16.1518C55.0488 16.0208 54.8406 15.7477 54.8193 15.3328C54.7974 14.8743 54.7751 14.4102 54.7538 13.9405C54.7319 13.4708 54.6771 13.0067 54.5897 12.5482C54.5242 12.1551 54.377 11.7733 54.1475 11.4016C53.918 11.0304 53.6397 10.7136 53.3122 10.4516C52.9847 10.1895 52.6186 9.99862 52.2144 9.87827C51.8097 9.75844 51.3897 9.74219 50.9531 9.82902C50.298 9.96003 49.7131 10.1845 49.2002 10.5008C48.6868 10.8177 48.2222 11.2051 47.8079 11.6641C46.9995 12.538 46.3551 13.4881 45.8748 14.5148C45.3939 15.5415 45.0994 16.6444 44.9902 17.824C44.9461 18.3048 44.9247 18.7796 44.9247 19.2493C44.9247 19.719 44.9461 20.1942 44.9902 20.6746C45.0557 21.4175 45.2959 22.0619 45.7113 22.6077C46.1261 23.1541 46.6177 23.6456 47.1859 24.0823C48.2344 24.8688 49.3317 25.3659 50.4788 25.5731C51.6253 25.7808 52.8323 25.7427 54.0992 25.4584C54.8858 25.2837 55.6393 25.0709 56.3599 24.8196C57.0809 24.5687 57.7572 24.1808 58.3915 23.6563C58.4783 23.5908 58.5661 23.5253 58.6535 23.4598C58.7403 23.3943 58.8388 23.3612 58.9485 23.3612Z" fill="white"/>
<path d="M95.6114 27.7514C95.8079 27.8825 95.9115 28.0348 95.9227 28.21C95.9334 28.3846 95.8953 28.5593 95.8079 28.734C95.3052 29.9791 94.601 30.9728 93.6946 31.7157C92.7877 32.458 91.7011 32.982 90.4347 33.2882C89.9975 33.3974 89.5608 33.4792 89.1241 33.534C88.6869 33.5883 88.2939 33.6376 87.9445 33.6813C86.8086 33.5939 85.7271 33.4736 84.7009 33.3207C83.6741 33.1679 82.7022 32.8292 81.7847 32.3052C81.02 31.868 80.3375 31.3551 79.7368 30.7651C79.1356 30.1756 78.5735 29.5414 78.0495 28.865C77.1101 27.6199 76.187 26.3805 75.2811 25.146C74.3742 23.9122 73.4516 22.6722 72.5127 21.4271C72.2284 21.0341 71.9501 20.6355 71.6774 20.2313C71.4042 19.8276 71.0818 19.4615 70.7106 19.1335C70.4044 19.4397 70.0932 19.7453 69.7768 20.051C69.46 20.3572 69.1487 20.6629 68.843 20.9686C68.5587 21.2529 68.4058 21.5419 68.3845 21.8369C68.3627 22.1319 68.3733 22.4325 68.4175 22.7377C68.6795 24.0482 69.4112 24.9983 70.6126 25.5883C70.8091 25.698 71.0056 25.8011 71.2021 25.8996C71.3986 25.9981 71.584 26.124 71.7592 26.2764C71.846 26.3419 71.9283 26.4515 72.0049 26.6039C72.0811 26.7567 72.0973 26.8771 72.0542 26.9644C71.9887 27.0954 71.8902 27.2213 71.7592 27.3412C71.6282 27.461 71.486 27.5321 71.3331 27.5539C70.9833 27.5976 70.6289 27.6301 70.2683 27.6524C69.9078 27.6738 69.5417 27.6849 69.1705 27.6849C68.4058 27.7063 67.6579 27.7123 66.9262 27.7012C66.1939 27.69 65.446 27.6956 64.6818 27.7174C64.2446 27.7174 63.8186 27.7388 63.4037 27.7829C62.9884 27.8266 62.5628 27.8698 62.1262 27.9139C61.9073 27.9353 61.7052 27.9353 61.5199 27.9139C61.334 27.8921 61.1974 27.7499 61.1101 27.4879C61.0228 27.2259 61.0446 27.0076 61.1756 26.8324C61.3066 26.6577 61.4813 26.5485 61.6996 26.5049C62.1363 26.3738 62.5024 26.1885 62.7974 25.9478C63.0924 25.7076 63.3433 25.435 63.551 25.1288C63.7581 24.8231 63.9384 24.49 64.0918 24.1295C64.2441 23.769 64.3974 23.414 64.5503 23.0647C64.5716 22.9992 64.5828 22.89 64.5828 22.7372C64.6041 21.6454 64.6209 20.5695 64.632 19.5097C64.6427 18.4505 64.6701 17.375 64.7138 16.2823C64.7138 15.9111 64.7244 15.5344 64.7468 15.152C64.7681 14.7702 64.7905 14.3822 64.8123 13.9887C64.8123 13.6612 64.7412 13.3118 64.5995 12.9401C64.4573 12.5689 64.272 12.2191 64.0425 11.8916C63.813 11.5641 63.5454 11.269 63.2397 11.007C62.9335 10.745 62.6278 10.5597 62.3222 10.45C62.147 10.3845 61.9667 10.3302 61.7814 10.286C61.5955 10.2423 61.4153 10.1662 61.2406 10.0565C61.1309 9.99097 61.0385 9.87621 60.9623 9.7122C60.8857 9.54819 60.8582 9.4121 60.8806 9.30242C60.9019 9.19325 60.9791 9.08459 61.1101 8.97491C61.2411 8.86574 61.3721 8.78957 61.5031 8.74539C61.6554 8.70173 61.8144 8.66923 61.9784 8.64689C62.1424 8.62556 62.311 8.61388 62.4862 8.61388C64.0151 8.59255 65.5333 8.57021 67.0404 8.54838C68.5475 8.52705 70.0546 8.50471 71.5622 8.48287C71.78 8.48287 71.977 8.51029 72.1517 8.56463C72.3264 8.61947 72.4467 8.76672 72.5122 9.0069C72.5777 9.24758 72.5452 9.42784 72.4137 9.54768C72.2827 9.66802 72.1187 9.78278 71.9222 9.89195C71.4636 10.154 70.9934 10.4109 70.5131 10.6617C70.0322 10.9131 69.6174 11.2574 69.268 11.694C69.0492 11.9784 68.8857 12.2567 68.7765 12.5293C68.6668 12.8025 68.6125 13.125 68.6125 13.4961C68.6125 14.1735 68.6013 14.8509 68.58 15.5278C68.5581 16.2051 68.5358 16.8825 68.5145 17.5594V18.1164C68.5358 18.1382 68.5581 18.1494 68.58 18.1494C68.6018 18.1494 68.6237 18.1606 68.6455 18.1824C69.7154 17.0902 70.7858 16.0035 71.8562 14.9225C72.926 13.8414 73.9858 12.7436 75.0343 11.6296C75.1435 11.5204 75.2146 11.3513 75.2471 11.1218C75.2801 10.8923 75.2963 10.6907 75.2963 10.5155C75.2963 10.4287 75.2471 10.3464 75.1491 10.2697C75.0506 10.1936 74.947 10.1225 74.8378 10.057C74.7936 10.0133 74.7449 9.99706 74.6906 10.0077C74.6357 10.0189 74.5865 10.0026 74.5433 9.95847C74.4336 9.8493 74.3189 9.73454 74.199 9.6142C74.0787 9.49436 74.0076 9.36843 73.9863 9.23743C73.9421 9.04092 73.9863 8.87691 74.1173 8.7459C74.2483 8.6149 74.4123 8.53873 74.6088 8.51639C75.0018 8.47272 75.4004 8.42956 75.8046 8.38538C76.2088 8.34171 76.6074 8.30921 77.0004 8.28687C77.918 8.2432 78.8188 8.21629 79.7033 8.20512C80.5879 8.19446 81.4775 8.17821 82.3737 8.15587C82.6139 8.13454 82.8104 8.16704 82.9632 8.25437C83.1156 8.34171 83.2141 8.50572 83.2583 8.7459C83.3019 8.98659 83.2633 9.17751 83.1435 9.31918C83.0232 9.46136 82.8652 9.55428 82.6682 9.59744C81.379 9.92496 80.2273 10.4327 79.2118 11.1208C78.1962 11.8088 77.2294 12.6116 76.3119 13.5292C75.2197 14.6432 74.1168 15.7466 73.0027 16.8383C73.1119 16.8825 73.2266 16.9201 73.347 16.9531C73.4668 16.9861 73.5927 17.0242 73.7238 17.0678C74.7068 17.4395 75.5634 17.9524 76.2956 18.6079C77.0273 19.263 77.721 19.9733 78.376 20.7375C79.1184 21.5678 79.8506 22.4086 80.5711 23.2602C81.2922 24.1122 82.0015 24.9638 82.7007 25.8158C83.8803 27.2361 85.2122 28.2074 86.6979 28.732C88.1832 29.256 89.8213 29.4088 91.6127 29.1905C91.7874 29.1686 91.9453 29.1519 92.088 29.1412C92.2296 29.1301 92.3881 29.1138 92.5633 29.092C93.3498 29.0046 94.0262 28.6441 94.5949 28.0109C94.7259 27.8357 94.8787 27.7159 95.0534 27.6504C95.2281 27.5849 95.4139 27.6174 95.6104 27.7489L95.6114 27.7514Z" fill="white"/>
<path d="M110.585 25.7204C111.044 25.7859 111.251 26.0479 111.208 26.5069C111.163 26.7476 111.071 26.9167 110.929 27.0147C110.787 27.1132 110.618 27.162 110.421 27.162C110.18 27.1838 109.935 27.1945 109.684 27.1945H108.946C108.116 27.1945 107.303 27.1894 106.506 27.1782C105.708 27.1676 104.894 27.1731 104.065 27.1945C103.606 27.2163 103.147 27.2493 102.689 27.293C102.23 27.3372 101.76 27.3798 101.28 27.424C100.995 27.4453 100.711 27.4621 100.428 27.4732C100.143 27.4839 99.8593 27.5002 99.5755 27.5225C99.117 27.5225 98.8656 27.293 98.822 26.8345C98.7778 26.6166 98.8164 26.447 98.9367 26.3267C99.0565 26.2068 99.2155 26.1251 99.412 26.0809C99.8923 25.9941 100.324 25.8245 100.706 25.5731C101.088 25.3223 101.465 25.0765 101.837 24.8358C102.295 24.5302 102.525 24.0716 102.525 23.4598C102.546 22.8921 102.519 22.3351 102.443 21.7887C102.366 21.2428 102.218 20.6965 102.001 20.1506C101.913 19.8886 101.727 19.7576 101.444 19.7576C100.788 19.7794 100.133 19.785 99.478 19.7738C98.8225 19.7632 98.1674 19.7576 97.5119 19.7576C96.8564 19.7576 96.2338 19.7632 95.5788 19.7738C94.9233 19.785 94.2789 19.7794 93.6457 19.7576C93.3182 19.7576 93.11 19.8998 93.0231 20.1836C92.8266 20.8828 92.6301 21.5709 92.4336 22.2477C92.2371 22.9251 92.0513 23.6131 91.8766 24.3118C91.8324 24.4215 91.8441 24.5576 91.9096 24.7216C91.9751 24.8856 92.0406 25.0222 92.1061 25.1314C92.521 25.6777 93.0998 25.9834 93.8427 26.0489C93.995 26.0931 94.1484 26.12 94.3012 26.1307C94.4536 26.1418 94.5851 26.1799 94.6942 26.2454C94.8034 26.3328 94.9121 26.4475 95.0218 26.5897C95.1309 26.7319 95.1741 26.8573 95.1528 26.9665C95.1086 27.0975 95.0162 27.2341 94.874 27.3763C94.7318 27.5179 94.6064 27.589 94.4972 27.589C94.06 27.6327 93.634 27.6383 93.2192 27.6053C92.8038 27.5723 92.3778 27.556 91.9411 27.556C91.089 27.5118 90.2482 27.5118 89.4184 27.556C88.6756 27.5997 87.9439 27.6322 87.2233 27.6545C86.5023 27.6758 85.7818 27.6982 85.0607 27.72C84.951 27.72 84.8256 27.6545 84.6839 27.5235C84.5418 27.3925 84.4712 27.2833 84.4712 27.196C84.4925 27.0437 84.5474 26.8847 84.6352 26.7207C84.722 26.5567 84.8317 26.4313 84.9627 26.3439C85.2029 26.1693 85.4649 26.0383 85.7493 25.9509C86.0331 25.8641 86.3063 25.7438 86.5683 25.5904C87.529 25.0664 88.3704 24.4388 89.0909 23.7066C89.812 22.9749 90.3797 22.0847 90.7945 21.0362C91.2312 19.9008 91.6841 18.7705 92.1543 17.6452C92.624 16.5205 93.077 15.3795 93.5142 14.2213C93.6888 13.7628 93.8254 13.2931 93.9239 12.8122C94.0225 12.3319 94.1042 11.8515 94.1697 11.3706C94.2565 10.934 94.1641 10.5679 93.8914 10.2728C93.6183 9.97782 93.2633 9.80924 92.8266 9.76506H92.1056C91.9091 9.76506 91.7451 9.71581 91.6141 9.61781C91.4831 9.5193 91.4389 9.38321 91.4831 9.20803C91.5044 9.0557 91.5648 8.89676 91.6633 8.73275C91.7618 8.56874 91.8649 8.47633 91.9746 8.45449C92.3458 8.36766 92.7332 8.31282 93.1379 8.29048C93.5416 8.26915 93.9407 8.24681 94.3337 8.22498C95.4478 8.15947 96.5507 8.12647 97.6429 8.12647C98.0796 8.10514 98.5056 8.10514 98.921 8.12647C99.3358 8.1483 99.7507 8.18131 100.166 8.22498C100.756 8.29048 101.182 8.60733 101.444 9.17503C101.793 10.0271 102.153 10.8735 102.525 11.7144C102.896 12.5558 103.279 13.3911 103.672 14.2208C104.414 15.8157 105.157 17.399 105.9 18.9715C106.642 20.5441 107.396 22.1167 108.16 23.6898C108.401 24.2138 108.706 24.6566 109.078 25.0166C109.449 25.3771 109.951 25.6122 110.585 25.7209V25.7204ZM101.313 18.3155C100.613 17.0268 99.9253 15.7817 99.2485 14.5803C98.5711 13.3794 97.8937 12.1668 97.2169 10.9436C97.1727 10.9654 97.1351 10.9766 97.1021 10.9766C97.0691 10.9766 97.031 10.9878 96.9874 11.0096C96.4633 12.211 95.9388 13.418 95.4148 14.6301C94.8907 15.8421 94.355 17.0709 93.8092 18.316H101.312L101.313 18.3155Z" fill="white"/>
<path d="M120.71 8.02744C121.212 8.02744 121.703 8.01678 122.184 7.99444C122.664 7.97311 123.145 7.95077 123.626 7.92894C123.844 7.90761 124.03 7.93452 124.183 8.01069C124.335 8.08736 124.434 8.24579 124.478 8.48597C124.521 8.70482 124.483 8.87391 124.363 8.99374C124.243 9.11408 124.085 9.2065 123.888 9.272C123.058 9.57819 122.386 10.0311 121.873 10.6318C121.36 11.233 120.96 11.9373 120.677 12.7452C120.567 13.0514 120.513 13.3733 120.513 13.712V14.7443C120.491 16.2514 120.486 17.7478 120.497 19.233C120.507 20.7188 120.513 22.2147 120.513 23.7218C120.513 24.0493 120.524 24.3768 120.546 24.7048C120.567 25.0324 120.6 25.3492 120.645 25.6549C120.645 25.7204 120.671 25.7915 120.726 25.8676C120.781 25.9443 120.83 25.9936 120.874 26.0149C122.097 26.2987 123.265 26.6867 124.379 27.1782C125.493 27.6697 126.64 28.1227 127.819 28.538C129.261 29.0621 130.736 29.45 132.243 29.7014C133.75 29.9522 135.29 29.9684 136.862 29.7506C137.561 29.6409 138.244 29.5155 138.91 29.3738C139.576 29.2317 140.259 29.0839 140.958 28.9316C141.133 28.8874 141.291 28.8168 141.433 28.7188C141.575 28.6203 141.712 28.5167 141.843 28.4075C142.214 28.1232 142.586 28.0577 142.957 28.211C143.328 28.3634 143.536 28.6696 143.58 29.1286C143.601 29.3906 143.585 29.6526 143.531 29.9151C143.476 30.1771 143.405 30.428 143.318 30.6687C143.121 31.1927 142.864 31.6786 142.548 32.1265C142.231 32.5738 141.844 32.9399 141.385 33.2243C141.013 33.4421 140.598 33.6061 140.14 33.7158C139.681 33.825 139.233 33.9012 138.796 33.9453C136.874 34.0545 135.033 33.8687 133.275 33.3883C131.517 32.9074 129.786 32.2418 128.082 31.3897C126.706 30.6905 125.308 30.0405 123.888 29.4404C122.468 28.8391 120.994 28.3537 119.465 27.9825C119.093 27.8952 118.706 27.8353 118.302 27.8023C117.897 27.7693 117.499 27.7312 117.106 27.6875C116.079 27.622 115.074 27.589 114.092 27.589C113.851 27.589 113.616 27.6103 113.387 27.6545C113.158 27.6982 112.923 27.6982 112.683 27.6545C112.552 27.6327 112.416 27.5778 112.273 27.4905C112.131 27.4032 112.038 27.3052 111.995 27.1955C111.885 27.0208 111.875 26.8629 111.962 26.7202C112.049 26.5785 112.18 26.4531 112.355 26.3434C112.421 26.2998 112.491 26.2617 112.568 26.2287C112.644 26.1962 112.726 26.1581 112.814 26.1139C113.643 25.8519 114.266 25.4096 114.681 24.7871C115.096 24.1646 115.413 23.4714 115.631 22.7067C115.74 22.4011 115.812 22.0898 115.844 21.7729C115.877 21.4566 115.893 21.1453 115.893 20.8391C115.937 19.6814 115.948 18.5349 115.926 17.399C115.904 16.2636 115.948 15.1165 116.057 13.9588C116.144 13.1946 116.062 12.5172 115.812 11.9272C115.56 11.3376 115.194 10.7918 114.714 10.2891C114.539 10.1144 114.348 9.97781 114.14 9.8793C113.933 9.78079 113.709 9.67772 113.469 9.56804C113.25 9.48121 113.048 9.33344 112.862 9.12576C112.677 8.91859 112.605 8.72767 112.65 8.55248C112.693 8.26864 112.814 8.08889 113.01 8.0117C113.207 7.93554 113.425 7.90812 113.666 7.92995C113.862 7.92995 114.266 7.93554 114.878 7.9462C115.489 7.95737 116.166 7.97362 116.909 7.99545C117.652 8.01729 118.372 8.02846 119.072 8.02846H120.71L120.71 8.02744Z" fill="white"/>
</g>
<defs>
<clipPath id="clip0_2013_27">
<rect width="143.588" height="37.155" fill="white"/>
</clipPath>
</defs>
</svg>
