<svg width="121" height="37" viewBox="0 0 121 37" fill="none" xmlns="http://www.w3.org/2000/svg">
<g clip-path="url(#clip0_2013_24)">
<path d="M4.68526 27.8278C4.68526 28.5353 4.46695 29.1416 4.03077 29.6464C3.59415 30.1517 3.04615 30.4043 2.38676 30.4043C1.72737 30.4043 1.14016 30.1517 0.68438 29.6464C0.228155 29.1416 0.000488281 28.5353 0.000488281 27.8278V10.0368C0.000488281 9.32972 0.204096 8.77904 0.611313 8.38475C1.01853 7.9909 1.49881 7.74808 2.05172 7.65719C2.60462 7.5663 3.14728 7.6269 3.68103 7.83897C4.21433 8.05104 4.61665 8.43019 4.88842 8.97552L11.3482 21.1898L17.7616 8.97552C18.0713 8.36915 18.482 7.9655 18.9953 7.76323C19.5081 7.5614 20.0062 7.52086 20.4896 7.64204C20.9735 7.76323 21.3896 8.03589 21.7376 8.46049C22.086 8.88463 22.2602 9.41036 22.2602 10.0363V27.8273C22.2602 28.1713 22.1973 28.4992 22.0717 28.8124C21.9461 29.126 21.7777 29.3987 21.5656 29.6308C21.3535 29.8634 21.1076 30.0505 20.8282 30.1918C20.5489 30.333 20.2544 30.4038 19.9461 30.4038C19.5986 30.4038 19.2809 30.333 18.9917 30.1918C18.7026 30.0505 18.4469 29.8634 18.225 29.6308C18.0031 29.3987 17.8298 29.126 17.7046 28.8124C17.579 28.4992 17.517 28.1713 17.517 27.8273V19.5533L13.4725 27.4638C13.2586 27.8879 12.9583 28.2114 12.5703 28.4337C12.1822 28.6565 11.7795 28.7669 11.3629 28.7669C10.9463 28.7669 10.5382 28.656 10.1408 28.4337C9.74294 28.2114 9.4373 27.8879 9.22434 27.4638L4.68526 18.8561V27.8273V27.8278ZM29.0398 27.8278C29.0398 28.1717 28.9766 28.4996 28.8505 28.8128C28.7239 29.1265 28.5546 29.3992 28.3412 29.6313C28.1274 29.8638 27.8756 30.051 27.5847 30.1922C27.2938 30.3334 26.9926 30.4043 26.6825 30.4043C26.0227 30.4043 25.4604 30.1517 24.9948 29.6464C24.5293 29.1416 24.2967 28.5353 24.2967 27.8278V10.0368C24.2967 9.39031 24.5293 8.82449 24.9948 8.3393C25.4604 7.85456 26.0227 7.61175 26.6825 7.61175C26.9926 7.61175 27.2938 7.67769 27.5847 7.80867C27.8756 7.9401 28.1274 8.11698 28.3412 8.33886C28.5546 8.56162 28.7239 8.81914 28.8505 9.11185C28.9766 9.40501 29.0398 9.71332 29.0398 10.0363V27.8273V27.8278ZM33.1427 12.5825C32.3666 12.5825 31.7847 12.325 31.3967 11.8096C31.0086 11.2945 30.8148 10.7287 30.8148 10.1121C30.8148 9.49546 31.0086 8.93008 31.3967 8.4146C31.7843 7.89956 32.3666 7.6416 33.1427 7.6416H39.9224C41.5517 7.6416 42.9725 7.9704 44.1852 8.62667C45.3975 9.28338 46.4062 10.1419 47.2113 11.2027C48.0159 12.2635 48.6227 13.4758 49.03 14.8396C49.4372 16.2034 49.6359 17.5975 49.6265 19.0223C49.6167 20.4466 49.4082 21.8412 49.001 23.2049C48.5938 24.5687 47.987 25.781 47.1823 26.8418C46.3773 27.9026 45.3681 28.7616 44.1563 29.4179C42.9435 30.0746 41.5325 30.4029 39.9224 30.4029H33.1427C32.3666 30.4029 31.7847 30.1472 31.3967 29.6348C31.0086 29.1229 30.8148 28.5558 30.8148 27.9329C30.8148 27.3101 31.0086 26.7433 31.3967 26.231C31.7843 25.7191 32.3666 25.4629 33.1427 25.4629H39.9224C41.0474 25.4629 41.9834 25.1443 42.7301 24.5059C43.4768 23.8679 44.0396 23.073 44.4178 22.1209C44.7961 21.1693 44.9854 20.1361 44.9854 19.0223C44.9854 17.9084 44.7961 16.8757 44.4178 15.9236C44.0396 14.9719 43.4768 14.1771 42.7301 13.5387C41.983 12.9007 41.0469 12.5817 39.9224 12.5817H33.1427V12.5825ZM67.3903 21.4023V10.0368C67.3903 9.5115 67.5066 9.06686 67.7396 8.7033C67.9722 8.33975 68.268 8.07198 68.6271 7.90001C68.9858 7.72848 69.3738 7.64249 69.7909 7.64249C70.2079 7.64249 70.5955 7.72848 70.9546 7.90001C71.3132 8.07198 71.6095 8.3393 71.8421 8.7033C72.0747 9.0673 72.1914 9.5115 72.1914 10.0368V26.979L77.2834 32.8284C77.7294 33.3132 77.933 33.8892 77.8942 34.5562C77.855 35.2232 77.5743 35.7885 77.0504 36.2532C76.5848 36.7179 76.0363 36.9353 75.4063 36.905C74.7759 36.8747 74.2373 36.6065 73.7913 36.1017C72.8601 35.0507 72.0551 34.1316 71.3761 33.3439C70.6966 32.5557 70.0323 31.7983 69.3828 31.0708C68.7327 30.3432 68.0586 29.5756 67.3605 28.7674C66.6623 27.9596 65.8279 26.9995 64.8579 25.8879C63.8876 24.7768 62.7336 23.4584 61.3953 21.9325C60.0569 20.407 58.4271 18.5433 56.5069 16.3406V27.8273C56.5069 28.6355 56.2641 29.2419 55.7793 29.646C55.2941 30.0505 54.7559 30.2523 54.1643 30.2523C53.5726 30.2523 53.034 30.0505 52.5492 29.646C52.064 29.2419 51.8217 28.636 51.8217 27.8273V10.6431L46.1478 4.0662C45.934 3.82383 45.774 3.55607 45.6675 3.26291C45.5606 2.97019 45.512 2.66189 45.5218 2.33843C45.5312 2.01542 45.5989 1.70711 45.7254 1.41395C45.8515 1.12124 46.0404 0.853472 46.2931 0.610657C46.5256 0.388336 46.7925 0.227054 47.0932 0.125918C47.394 0.0252277 47.6943 -0.0153157 47.9954 0.00473326C48.2962 0.0252277 48.5871 0.105869 48.8682 0.247103C49.1494 0.388782 49.3966 0.591053 49.61 0.853472L67.3886 21.4023H67.3903ZM88.6899 7.64249C89 7.64249 89.2958 7.70843 89.5774 7.83942C89.8585 7.97129 90.1107 8.14772 90.3339 8.3696C90.5567 8.59236 90.7362 8.84988 90.8721 9.1426C91.0075 9.43576 91.0757 9.74406 91.0757 10.0671C91.0757 10.4306 91.0075 10.7643 90.8721 11.0673C90.7362 11.3703 90.5567 11.6331 90.3339 11.8554C90.1107 12.0782 89.8585 12.2546 89.5774 12.3856C89.2958 12.5175 89 12.5825 88.6899 12.5825H76.7309C76.0711 12.5825 75.5088 12.3402 75.0432 11.855C74.5777 11.3703 74.3451 10.7741 74.3451 10.0666C74.3451 9.42016 74.5777 8.85434 75.0432 8.36915C75.5088 7.88441 76.0711 7.6416 76.7309 7.6416H88.6899V7.64249ZM92.9674 25.4335C93.2775 25.4335 93.5783 25.499 93.8696 25.6295C94.1606 25.76 94.4123 25.936 94.6262 26.1566C94.8396 26.3771 95.0138 26.6333 95.1501 26.9247C95.2855 27.216 95.3537 27.5221 95.3537 27.8434C95.3537 28.1846 95.2855 28.5112 95.1501 28.8222C95.0142 29.1336 94.8396 29.4045 94.6262 29.6357C94.4123 29.867 94.1606 30.0523 93.8696 30.1931C93.5787 30.3334 93.2775 30.4038 92.9674 30.4038H76.7309C76.0711 30.4038 75.5088 30.153 75.0432 29.6509C74.5777 29.1488 74.3451 28.546 74.3451 27.8434C74.3451 27.5221 74.4079 27.216 74.5344 26.9247C74.6605 26.6333 74.8298 26.3771 75.0437 26.1566C75.2571 25.936 75.5093 25.76 75.8002 25.6295C76.0911 25.499 76.4012 25.4335 76.7314 25.4335H92.9679H92.9674ZM88.0207 16.3108C88.6609 16.3108 89.1408 16.5638 89.4611 17.0686C89.781 17.5738 89.936 18.1348 89.9267 18.7509C89.9169 19.3676 89.752 19.928 89.4321 20.4328C89.1123 20.9381 88.6413 21.1907 88.0211 21.1907H76.4694C75.7899 21.1907 75.2714 20.9381 74.9127 20.4328C74.5536 19.928 74.3745 19.3671 74.3745 18.7509C74.3745 18.1348 74.5442 17.5743 74.8837 17.0686C75.2228 16.5638 75.7516 16.3108 76.4694 16.3108H88.0211H88.0207ZM92.7055 10.8855C92.55 10.3602 92.5308 9.89064 92.6471 9.4763C92.7634 9.0624 92.9572 8.70865 93.229 8.41549C93.5003 8.12277 93.83 7.9156 94.2185 7.79397C94.6066 7.67279 94.9942 7.63759 95.3822 7.68793C95.7703 7.73872 96.1289 7.90001 96.4591 8.17267C96.7888 8.44534 97.0409 8.83473 97.2156 9.33952L100.736 20.2809L104.199 9.33952C104.393 8.77414 104.703 8.34999 105.13 8.06664C105.556 7.78372 106.013 7.64249 106.498 7.64249C106.983 7.64249 107.438 7.78417 107.866 8.06664C108.292 8.34999 108.593 8.77414 108.768 9.33952L112.318 20.2809L115.868 9.33952C116.1 8.57187 116.508 8.07688 117.09 7.85456C117.672 7.63269 118.244 7.61219 118.807 7.79397C119.369 7.97575 119.82 8.33975 120.16 8.88508C120.499 9.43085 120.542 10.0974 120.291 10.8855L114.587 28.7068C114.413 29.2726 114.102 29.6972 113.656 29.9797C113.21 30.263 112.744 30.4038 112.259 30.4038C111.775 30.4038 111.318 30.2626 110.892 29.9797C110.465 29.6968 110.164 29.2726 109.989 28.7068L106.468 17.7654L103.035 28.7068C102.84 29.2726 102.525 29.6972 102.089 29.9797C101.652 30.263 101.192 30.4038 100.707 30.4038C100.222 30.4038 99.7658 30.2626 99.339 29.9797C98.9122 29.6968 98.6114 29.2726 98.4368 28.7068L92.7046 10.8855H92.7055Z" fill="white"/>
</g>
<defs>
<clipPath id="clip0_2013_24">
<rect width="120.45" height="36.9079" fill="white"/>
</clipPath>
</defs>
</svg>
