<svg width="124" height="20" viewBox="0 0 124 20" fill="none" xmlns="http://www.w3.org/2000/svg">
<g clip-path="url(#clip0_2013_17)">
<path d="M104.386 6.76689H108.502V13.5588H118.072C118.526 13.5588 118.913 13.3947 119.233 13.0665C119.553 12.7383 119.713 12.347 119.713 11.8924V5.78195C119.713 5.32734 119.553 4.93605 119.233 4.60783C118.913 4.2796 118.526 4.11549 118.072 4.11549H104.386V0H118.072C119.654 0 121.013 0.564105 122.149 1.69179C123.286 2.81974 123.854 4.1833 123.854 5.78221V11.8926C123.854 12.9364 123.592 13.9042 123.071 14.7963C122.549 15.6886 121.846 16.3912 120.962 16.9047C120.079 17.4184 119.115 17.6749 118.071 17.6749H104.386V6.76715L104.386 6.76689Z" fill="white"/>
<path d="M98.9702 0.911072V18.5854H94.8294L84.1995 6.69302V18.5854H80.084V0.911072H84.1995L94.8294 12.7275V0.911072H98.9702Z" fill="white"/>
<path d="M47.4484 7.29487V13.7586C47.4484 15.3747 46.8843 16.7126 45.7566 17.7733C44.6286 18.8337 43.2651 19.364 41.6662 19.364H31.2888C29.6893 19.364 28.326 18.834 27.1984 17.7733C26.0704 16.7129 25.5068 15.3747 25.5068 13.7586V7.29487C25.5068 5.6788 26.0707 4.34083 27.1984 3.28043C28.326 2.22003 29.6893 1.6897 31.2888 1.6897H41.6662C43.2651 1.6897 44.6286 2.21977 45.7566 3.28043C46.884 4.34083 47.4484 5.67907 47.4484 7.29487ZM43.3076 13.7586V7.29487C43.3076 6.30201 42.7603 5.80519 41.6664 5.80519H31.289C30.178 5.80519 29.6226 6.30201 29.6226 7.29487V13.7586C29.6226 14.752 30.178 15.2483 31.289 15.2483H41.6664C42.7603 15.2483 43.3076 14.752 43.3076 13.7586Z" fill="white"/>
<path d="M0.000488281 0.408997H16.1854C17.8178 0.408997 19.2191 0.993946 20.3895 2.16384C21.5592 3.33401 22.1444 4.73926 22.1444 6.38039C22.1444 8.02152 21.5594 9.42729 20.3895 10.5972C19.2194 11.7674 17.8181 12.352 16.1854 12.352H11.6153L14.9229 18.0836H10.176L6.8431 12.352L4.4698 8.21122H16.1854C16.6735 8.21122 17.0983 8.03049 17.4603 7.66822C17.822 7.30623 18.0033 6.87273 18.0033 6.36772C18.0033 5.86272 17.8223 5.42948 17.4603 5.06748C17.098 4.70575 16.6733 4.52449 16.1854 4.52449H2.34873L0.000488281 0.484721V0.408997Z" fill="white"/>
<path d="M74.5924 14.0797C74.5924 15.6958 74.0283 17.0337 72.9006 18.0944C71.7727 19.1548 70.4094 19.6851 68.8105 19.6851H58.4331C56.817 19.6851 55.4492 19.1551 54.33 18.0944C53.2102 17.034 52.6509 15.6958 52.6509 14.0797V2.0108H56.7666V14.08C56.7666 15.0733 57.322 15.5696 58.4331 15.5696H68.8105C69.9044 15.5696 70.4516 15.0733 70.4516 14.08V2.0108H74.5924V14.08V14.0797Z" fill="white"/>
</g>
<defs>
<clipPath id="clip0_2013_17">
<rect width="123.853" height="19.6851" fill="white"/>
</clipPath>
</defs>
</svg>
